<?xml version="1.0" encoding="UTF-8" standalone="no"?>
<!-- Created with Inkscape (http://www.inkscape.org/) -->

<svg
   version="1.1"
   id="svg1"
   width="1000"
   height="881"
   viewBox="0 0 1000 881"
   sodipodi:docname="Windows XP Indexed.svg"
   inkscape:version="1.3.2 (091e20e, 2023-11-25, custom)"
   xmlns:inkscape="http://www.inkscape.org/namespaces/inkscape"
   xmlns:sodipodi="http://sodipodi.sourceforge.net/DTD/sodipodi-0.dtd"
   xmlns="http://www.w3.org/2000/svg"
   xmlns:svg="http://www.w3.org/2000/svg">
  <defs
     id="defs1" />
  <sodipodi:namedview
     id="namedview1"
     pagecolor="#ffffff"
     bordercolor="#000000"
     borderopacity="0.25"
     inkscape:showpageshadow="2"
     inkscape:pageopacity="0.0"
     inkscape:pagecheckerboard="0"
     inkscape:deskcolor="#d1d1d1"
     inkscape:zoom="0.59818388"
     inkscape:cx="499.8463"
     inkscape:cy="440.5"
     inkscape:window-width="1366"
     inkscape:window-height="705"
     inkscape:window-x="-8"
     inkscape:window-y="-8"
     inkscape:window-maximized="1"
     inkscape:current-layer="svg1" />
  <g
     id="g20"
     style="display:inline">
    <path
       style="fill:#c1c1c1"
       d="M 297,80.5 V 76 h 4 4 v 4.5 4.5 h -4 -4 z M 331,72 v -4 h 4 4 v 4 4 h -4 -4 z"
       id="path38" />
    <path
       style="fill:#bebebe"
       d="M 229,317.5 V 313 h 4 4 v 4.5 4.5 h -4 -4 z m 51,-17 V 296 h 4 4 v 4.5 4.5 h -4 -4 z M 246,284 v -4 h 4 4 v 4 4 h -4 -4 z m -9,-34 v -4 h 4.5 4.5 v 4 4 h -4.5 -4.5 z m 9,-68 v -4 h 4 4 v 4 4 h -4 -4 z m 17,0 v -4 h 4 4 v 4 4 h -4 -4 z m 34,-42 v -4 h 4 4 v 4 4 h -4 -4 z M 314,80.5 V 76 h 4 4 v 4.5 4.5 h -4 -4 z M 331,38 v -4 h 4 4 v 4 4 h -4 -4 z"
       id="path37" />
    <path
       style="fill:#bababa"
       d="M 203,334.5 V 330 h 4.5 4.5 v 4.5 4.5 h -4.5 -4.5 z m 17,0 V 330 h 4.5 4.5 v 4.5 4.5 h -4.5 -4.5 z m 51,-8.5 v -4 h 4.5 4.5 v 4 4 h -4.5 -4.5 z m 17,0 v -4 h 4.5 4.5 v 4 4 h -4.5 -4.5 z m -42,-8.5 V 313 h 4 4 v 4.5 4.5 h -4 -4 z M 263,292 v -4 h 4 4 v 4 4 h -4 -4 z m 0,-16.5 V 271 h -4.5 -4.5 v -4 -4 h 4.5 4.5 v 4 4 h 4 4 v 4.5 4.5 h -4 -4 z M 229,267 v -4 h 4 4 v 4 4 h -4 -4 z m -17,-8.5 V 254 h 4 4 v 4.5 4.5 h -4 -4 z m 59,0 V 254 h 4.5 4.5 v 4.5 4.5 H 275.5 271 Z M 254,250 v -4 h 4.5 4.5 v -4.5 -4.5 h -4.5 -4.5 v -4 -4 h 4.5 4.5 v 4 4 h 4 4 v 4.5 4.5 h -4 -4 v 4 4 h -4.5 -4.5 z m 34,-17 v -4 h 4.5 4.5 v 4 4 h -4.5 -4.5 z m -51,-8.5 V 220 h 4.5 4.5 v 4.5 4.5 h -4.5 -4.5 z m 26,-17 V 203 h -4.5 -4.5 v -4 -4 h 4.5 4.5 v 4 4 h 4 4 v 4.5 4.5 h -4 -4 z m 42,0 V 203 h 4.5 4.5 v 4.5 4.5 H 309.5 305 Z M 237,199 v -4 h 4.5 4.5 v 4 4 h -4.5 -4.5 z m 51,-17 v -4 h 4.5 4.5 v 4 4 h -4.5 -4.5 z m 26,-8.5 V 169 h 4 4 v 4.5 4.5 h -4 -4 z M 271,165 v -4 h 4.5 4.5 v 4 4 h -4.5 -4.5 z m 17,0 v -4 h 4.5 4.5 v -4.5 -4.5 h -4.5 -4.5 v -4 -4 h 4.5 4.5 v 4 4 h 4 4 v 4.5 4.5 h -4 -4 v 4 4 h -4.5 -4.5 z m -34,-17 v -4 h 4.5 4.5 v 4 4 h -4.5 -4.5 z m 17,0 v -4 h 4.5 4.5 v 4 4 h -4.5 -4.5 z m 43,0 v -4 h 4 4 v 4 4 h -4 -4 z m 17,-8 v -4 h 4 4 v 4 4 h -4 -4 z m -60,-8.5 V 127 h 4.5 4.5 v 4.5 4.5 h -4.5 -4.5 z m 17,0 V 127 h 4.5 4.5 v 4.5 4.5 h -4.5 -4.5 z m 9,-17 V 110 h 4 4 v 4.5 4.5 h -4 -4 z m 17,0 V 110 h 4 4 v 4.5 4.5 h -4 -4 z m -51,-17 V 93 h 4 4 v 4.5 4.5 h -4 -4 z m 17,0 V 93 h 4 4 v 4.5 4.5 h -4 -4 z m 25,0 V 93 h 4.5 4.5 v 4.5 4.5 H 309.5 305 Z M 322,89 v -4 h 4.5 4.5 v 4 4 h -4.5 -4.5 z m 17,0 v -4 h 4 4 v 4 4 h -4 -4 z M 280,63.5 V 59 h 4 4 v 4.5 4.5 h -4 -4 z m 17,0 V 59 h 4 4 v 4.5 4.5 h -4 -4 z m 59,0 V 59 h 4 4 v 4.5 4.5 h -4 -4 z M 314,55 v -4 h 4 4 v 4 4 h -4 -4 z m 17,0 v -4 h 4 4 v 4 4 h -4 -4 z M 288,46.5 V 42 h 4.5 4.5 V 46.5 51 H 292.5 288 Z M 331,21 v -4 h 4 4 v 4 4 h -4 -4 z m 16,0 v -4 h 4.5 4.5 v 4 4 h -4.5 -4.5 z"
       id="path36" />
    <path
       style="fill:#b9b9b9"
       d="m 237,326 v -4 h 4.5 4.5 v 4 4 h -4.5 -4.5 z m -25,-8.5 V 313 h 4 4 v 4.5 4.5 h -4 -4 z m 25,-17 V 296 h 4.5 4.5 v 4.5 4.5 h -4.5 -4.5 z m 9,-33.5 v -4 h 4 4 v 4 4 h -4 -4 z m 25,-25.5 V 237 h 4.5 4.5 v 4.5 4.5 H 275.5 271 Z M 314,21 v -4 h 4 4 v 4 4 h -4 -4 z"
       id="path35" />
    <path
       style="fill:#b7b7b7"
       d="m 229,284 v -4 h 4 4 v 4 4 h -4 -4 z m 51,-8.5 V 271 h 4 4 v 4.5 4.5 h -4 -4 z m 8,-25.5 v -4 h 4.5 4.5 v 4 4 h -4.5 -4.5 z m -8,-34 v -4 h 4 4 v 4 4 h -4 -4 z M 280,80.5 V 76 h 4 4 v 4.5 4.5 h -4 -4 z"
       id="path34" />
    <path
       style="fill:#b5b5b5"
       d="m 254,326 v -4 h 4.5 4.5 v 4 4 h -4.5 -4.5 z m 9,-17 v -4 h 4 4 v 4 4 h -4 -4 z m -43,-8.5 V 296 h 4.5 4.5 v 4.5 4.5 h -4.5 -4.5 z m 26,0 V 296 h 4 4 v 4.5 4.5 h -4 -4 z M 203,292 v -4 h 4.5 4.5 v 4 4 h -4.5 -4.5 z m 26,-59 v -4 h 4 4 v 4 4 h -4 -4 z m 42,-8.5 V 220 h 4.5 4.5 v 4.5 4.5 h -4.5 -4.5 z m 17,-17 V 203 h -4 -4 v -4 -4 h 4 4 v 4 4 h 4.5 4.5 v 4.5 4.5 H 292.5 288 Z M 305,182 v -4 h 4.5 4.5 v 4 4 h -4.5 -4.5 z m -25,-8.5 V 169 h 4 4 v 4.5 4.5 h -4 -4 z M 254,123 v -4 h 4.5 4.5 v 4 4 h -4.5 -4.5 z m 43,0 v -4 h 4 4 v 4 4 h -4 -4 z m -17,-8.5 V 110 h 4 4 v 4.5 4.5 h -4 -4 z m 42,-8.5 v -4 h 4.5 4.5 v 4 4 h -4.5 -4.5 z m -8,-34 v -4 h 4 4 v 4 4 h -4 -4 z m 33,-34 v -4 h 4.5 4.5 v 4 4 h -4.5 -4.5 z"
       id="path33" />
    <path
       style="fill:#b3b3b3"
       d="m 254,216 v -4 h 4.5 4.5 v 4 4 h -4.5 -4.5 z m 17,-25.5 V 186 h 4.5 4.5 v 4.5 4.5 H 275.5 271 Z M 254,165 v -4 h 4.5 4.5 v 4 4 h -4.5 -4.5 z m 60,-33.5 V 127 h 4 4 v 4.5 4.5 h -4 -4 z m -17,-34 V 93 h 4 4 v 4.5 4.5 h -4 -4 z m 8,-51 V 42 h 4.5 4.5 v -4 -4 h 4 4 v 4 4 h -4 -4 v 4.5 4.5 h -4.5 -4.5 z"
       id="path32" />
    <path
       style="fill:#879ff2"
       d="m 153,716 v -4 h 4 4 v 4 4 h -4 -4 z m 76,0 v -4 h 4 4 v 4 4 h -4 -4 z M 161,411 v -4 h 4 4 v 4 4 h -4 -4 z m 17,-8.5 V 398 h 12.5 12.5 v -4 -4 h 25.5 25.5 v 4 4 H 228.5 203 v 4.5 4.5 H 190.5 178 Z M 305,394 v -4 h 4.5 4.5 v 4 4 h -4.5 -4.5 z"
       id="path31" />
    <path
       style="fill:#859df2"
       d="m 51,733 v -4 h 4 4 v -4.5 -4.5 h 13 13 v -4 -4 H 76.5 68 V 707.5 703 H 80.5 93 v -4 -4 H 84.5 76 v -4.5 -4.5 h 8.5 8.5 v -4 -4 H 84.5 76 v -4.5 -4.5 h 8.5 8.5 v -4 -4 h -4 -4 v -4.5 -4.5 h 4 4 v -8.5 -8.5 h 8.5 8.5 v -4 -4 H 101.5 93 v -4.5 -4.5 h 8.5 8.5 v -4 -4 h -4 -4 v -4.5 -4.5 h 4 4 v -4 -4 h -4 -4 v -4 -4 h 8.5 8.5 v -4.5 -4.5 h -4.5 -4.5 v -4 -4 h 4.5 4.5 v -13 -13 h 4 4 v -4 -4 h -4 -4 v -4.5 -4.5 h 4 4 v 4.5 4.5 h 4.5 4.5 v -8.5 -8.5 h -4.5 -4.5 v -4.5 -4.5 h 4.5 4.5 v -4 -4 h -4.5 -4.5 v -4.5 -4.5 h 4.5 4.5 v -4 -4 h 8.5 8.5 v -4.5 -4.5 h -8.5 -8.5 v -4 -4 h 12.5 12.5 v -4.5 -4.5 h -8.5 -8.5 v -4 -4 h 8.5 8.5 v -4.5 -4.5 h -8.5 -8.5 v -4 -4 h 8.5 8.5 v -8.5 -8.5 h 4 4 v -4 -4 h 17 17 v -4.5 -4.5 h 25.5 25.5 v -4 -4 h 25.5 25.5 v 8.5 8.5 h -4 -4 v 8.5 8.5 h 4 4 v -4.5 -4.5 h 4.5 4.5 v -4 -4 h 4 4 v 4 4 h -4 -4 v 4.5 4.5 h -4.5 -4.5 v 4 4 h -4 -4 v 4 4 h 4 4 v 4.5 4.5 h -4 -4 v -4.5 -4.5 h -4.5 -4.5 v 8.5 8.5 h 4.5 4.5 v 4.5 4.5 h 4 4 v -4.5 -4.5 h 4.5 4.5 v 4.5 4.5 h -4.5 -4.5 v 4 4 h -4 -4 v -4 -4 h -4.5 -4.5 v -4.5 -4.5 h -4 -4 v 8.5 8.5 h 4 4 v 4.5 4.5 h 4.5 4.5 v 4 4 h -4.5 -4.5 v 4.5 4.5 h -8.5 -8.5 v 8.5 8.5 h 4.5 4.5 v -4.5 -4.5 h 4 4 v 4.5 4.5 h -4 -4 v 4 4 h 4 4 v 4.5 4.5 h -4 -4 v -4.5 -4.5 h -4.5 -4.5 v 4.5 4.5 h -4 -4 v 8.5 8.5 h 4 4 v -4.5 -4.5 h 4.5 4.5 v 4.5 4.5 h -4.5 -4.5 v 4 4 h 4.5 4.5 v 4.5 4.5 h -4.5 -4.5 v 4 4 h -4 -4 v 4.5 4.5 h -4.5 -4.5 v -4.5 -4.5 h -4 -4 v 8.5 8.5 h 8.5 8.5 v 4 4 h -8.5 -8.5 v 8.5 8.5 h 4 4 v -4 -4 h 4.5 4.5 v 4 4 h -4.5 -4.5 v 4.5 4.5 h -4 -4 v 4 4 h -4.5 -4.5 v 4.5 4.5 h 4.5 4.5 v 4 4 h -4.5 -4.5 v -4 -4 h -4 -4 v 8.5 8.5 h 4 4 v 4 4 h -4 -4 v 4.5 4.5 h -4.5 -4.5 v 4 4 h 4.5 4.5 v 4.5 4.5 h 4 4 v 4 4 h -4 -4 v 4.5 4.5 H 199 169 V 707.5 703 H 156.5 144 v -4 -4 h -4 -4 v 4 4 h -4.5 -4.5 v 4.5 4.5 h 13 13 v 4 4 h -17 -17 v -4 -4 h -4.5 -4.5 v 4 4 H 101.5 93 v 4.5 4.5 H 76 59 v 4 4 h -4 -4 z m 178,-34 v -4 h -4.5 -4.5 v -4.5 -4.5 h -8.5 -8.5 v 4.5 4.5 h 8.5 8.5 v 4 4 h 4.5 4.5 z m -93,-8.5 V 686 h 4 4 v -4 -4 h 4.5 4.5 v -4.5 -4.5 h -4.5 -4.5 v -4 -4 h 4.5 4.5 v -4.5 -4.5 h 4 4 v -4 -4 h -4 -4 v -4.5 -4.5 h 4 4 v -8.5 -8.5 h 4 4 v -4 -4 h -4 -4 v -4.5 -4.5 h -4 -4 v 4.5 4.5 h 4 4 v 4 4 h -4 -4 v 8.5 8.5 h -4.5 -4.5 v 4.5 4.5 h 4.5 4.5 v 4 4 h -4.5 -4.5 v 4.5 4.5 h -4 -4 v 4 4 h 4 4 v 4.5 4.5 h -4 -4 v 4 4 h -4.5 -4.5 v 4.5 4.5 h 4.5 4.5 z m -34,-17 V 669 H 97.5 93 v 4.5 4.5 h 4.5 4.5 z m 110,0 V 669 h -4.5 -4.5 v 4.5 4.5 h 4.5 4.5 z m 17,-8.5 v -4 h -4.5 -4.5 v -4.5 -4.5 h -4 -4 v 4.5 4.5 h 4 4 v 4 4 h 4.5 4.5 z M 102,656.5 V 652 h 4 4 v -4 -4 h -4 -4 v 4 4 H 97.5 93 v 4.5 4.5 h 4.5 4.5 z m 118,-17 V 635 h -4 -4 v 4.5 4.5 h 4 4 z m 17,-8.5 v -4 h 4.5 4.5 v -4.5 -4.5 h -4.5 -4.5 v 4.5 4.5 h -4 -4 v -4.5 -4.5 h -4.5 -4.5 v 4.5 4.5 h 4.5 4.5 v 4 4 h 4 4 z M 119,605.5 V 601 h 4 4 v -4 -4 h -4 -4 v 4 4 h -4.5 -4.5 v 4.5 4.5 h 4.5 4.5 z m 118,0 V 601 h 4.5 4.5 v -4 -4 h -4.5 -4.5 v -4 -4 h -4 -4 v 4 4 h 4 4 v 4 4 h -4 -4 v 4.5 4.5 h 4 4 z M 178,597 v -4 h -4.5 -4.5 v -4 -4 h -4 -4 v 4 4 h 4 4 v 4 4 h 4.5 4.5 z m 8,-16.5 V 576 h -4 -4 v 4.5 4.5 h 4 4 z M 127,572 v -4 h 4.5 4.5 v -4.5 -4.5 h -4.5 -4.5 v 4.5 4.5 h -4 -4 v 4 4 h 4 4 z m 42,0 v -4 h 4.5 4.5 v -4.5 -4.5 h 4 4 v -4 -4 h -4 -4 v -4.5 -4.5 h 4 4 v -4 -4 h 4.5 4.5 v -4.5 -4.5 h -4.5 -4.5 v -4 -4 h 4.5 4.5 v -8.5 -8.5 h 4 4 v -4.5 -4.5 h -4 -4 v -4 -4 h -4.5 -4.5 v 4 4 h 4.5 4.5 v 4.5 4.5 h -4.5 -4.5 v 8.5 8.5 h -4 -4 v 4 4 h 4 4 v 4.5 4.5 h -4 -4 v 4 4 h -4.5 -4.5 v 4.5 4.5 h 4.5 4.5 v 4 4 h -4.5 -4.5 v 4.5 4.5 h -4 -4 v 4 4 h 4 4 z m 77,0 v -4 h -4.5 -4.5 v 4 4 h 4.5 4.5 z m 17,0 v -4 h 4 4 v -4.5 -4.5 h -4 -4 v -4 -4 h -4.5 -4.5 v 12.5 12.5 h 4.5 4.5 z m -17,-17 v -4 h -4.5 -4.5 v 4 4 h 4.5 4.5 z M 136,546.5 V 542 h -4.5 -4.5 v 4.5 4.5 h 4.5 4.5 z M 254,538 v -4 h -4 -4 v 4 4 h 4 4 z m 17,-17 v -4 h -8.5 -8.5 v 4 4 h 8.5 8.5 z M 144,512.5 V 508 h -4 -4 v 4.5 4.5 h 4 4 z M 263,504 v -4 h -4.5 -4.5 v 4 4 h 4.5 4.5 z M 153,495.5 V 491 h -8.5 -8.5 v 4.5 4.5 h 8.5 8.5 z M 288,487 v -4 H 275.5 263 v 4 4 h 12.5 12.5 z m -76,-8.5 V 474 h -4.5 -4.5 v -4 -4 h 4.5 4.5 v -4.5 -4.5 h -4.5 -4.5 v -4 -4 h -4 -4 v 4 4 h 4 4 v 4.5 4.5 h -4 -4 v 4 4 h 4 4 v 4.5 4.5 h 4.5 4.5 z m 59,-8.5 v -4 h -4 -4 v 4 4 h 4 4 z m 9,-17 v -4 h -4.5 -4.5 v 4 4 h 4.5 4.5 z m -60,-8.5 V 440 h -4 -4 v -4 -4 h 4 4 v -8.5 -8.5 h 4.5 4.5 v -4 -4 h -4.5 -4.5 v 4 4 h -4 -4 v 8.5 8.5 h -4.5 -4.5 v 4 4 h 4.5 4.5 v 4.5 4.5 h 4 4 z M 169,436 v -4 h -4 -4 v 4 4 h 4 4 z m 111,0 v -4 h -4.5 -4.5 v 4 4 h 4.5 4.5 z m 17,-8 v -4 h -4.5 -4.5 v -4.5 -4.5 h -4 -4 v 4.5 4.5 h 4 4 v 4 4 h 4.5 4.5 z M 178,419.5 V 415 h -4.5 -4.5 v 4.5 4.5 h 4.5 4.5 z m 119,-17 V 398 h -4.5 -4.5 v 4.5 4.5 h 4.5 4.5 z M 237,716 v -4 h 8.5 8.5 v 4 4 h -8.5 -8.5 z m 0,-34 v -4 h 4.5 4.5 v 4 4 h -4.5 -4.5 z m 9,-17 v -4 h 4 4 v 4 4 h -4 -4 z m 8,-25.5 V 635 h 4.5 4.5 v 4.5 4.5 H 258.5 254 Z M 271,589 v -4 h 4.5 4.5 v 4 4 h -4.5 -4.5 z m 26,-85 v -4 h 4 4 v 4 4 h -4 -4 z m 17,-68 v -4 h 4 4 v 4 4 h -4 -4 z"
       id="path30" />
    <path
       style="fill:#b1b1b1"
       d="m 110,716 v -4 h 4.5 4.5 v 4 4 h -4.5 -4.5 z m 17,-8.5 V 703 h 4.5 4.5 v -4 -4 h -4.5 -4.5 v -4.5 -4.5 h 4.5 4.5 v -4 -4 h 4 4 v -4.5 -4.5 h -4 -4 v -4 -4 h 4 4 v -4.5 -4.5 h 4.5 4.5 v -4 -4 h -4.5 -4.5 v -4.5 -4.5 h 4.5 4.5 v -8.5 -8.5 h 4 4 v -4 -4 h -4 -4 v -4.5 -4.5 h 4 4 v 4.5 4.5 h 4 4 v 4 4 h -4 -4 v 8.5 8.5 h -4 -4 v 4.5 4.5 h 4 4 v 4 4 h -4 -4 v 4.5 4.5 h -4.5 -4.5 v 4 4 h 4.5 4.5 v 4.5 4.5 h -4.5 -4.5 v 4 4 h -4 -4 v 4.5 4.5 h 4 4 v 4 4 h 12.5 12.5 v 4.5 4.5 H 148 127 Z M 169,597 v -4 h -4 -4 v -4 -4 h 4 4 v 4 4 h 4.5 4.5 v 4 4 h -4.5 -4.5 z m 9,-16.5 V 576 h 4 4 v 4.5 4.5 h -4 -4 z M 161,572 v -4 h 4 4 v -4.5 -4.5 h 4.5 4.5 v -4 -4 h -4.5 -4.5 v -4.5 -4.5 h 4.5 4.5 v -4 -4 h 4 4 v -4.5 -4.5 h -4 -4 v -4 -4 h 4 4 v -8.5 -8.5 h 4.5 4.5 v -4.5 -4.5 h -4.5 -4.5 v -4 -4 h 4.5 4.5 v 4 4 h 4 4 v 4.5 4.5 h -4 -4 v 8.5 8.5 h -4.5 -4.5 v 4 4 h 4.5 4.5 v 4.5 4.5 h -4.5 -4.5 v 4 4 h -4 -4 v 4.5 4.5 h 4 4 v 4 4 h -4 -4 v 4.5 4.5 h -4.5 -4.5 v 4 4 h -4 -4 z m 42,-93.5 V 474 h -4 -4 v -4 -4 h 4 4 v -4.5 -4.5 h -4 -4 v -4 -4 h 4 4 v 4 4 h 4.5 4.5 v 4.5 4.5 h -4.5 -4.5 v 4 4 h 4.5 4.5 v 4.5 4.5 h -4.5 -4.5 z m 9,-34 V 440 h -4.5 -4.5 v -4 -4 h 4.5 4.5 v -8.5 -8.5 h 4 4 v -4 -4 h 4.5 4.5 v 4 4 h -4.5 -4.5 v 8.5 8.5 h -4 -4 v 4 4 h 4 4 v 4.5 4.5 h -4 -4 z m 93,-415 V 25 h 4.5 4.5 v 4.5 4.5 h -4.5 -4.5 z"
       id="path29" />
    <path
       style="fill:#5878ee"
       d="M 8,745.5 V 737 h 4.5 4.5 v -8.5 -8.5 h 4 4 v -8.5 -8.5 h 8.5 8.5 v -4 -4 H 33.5 25 v -4.5 -4.5 h 4.5 4.5 v -17 -17 h 4 4 v -8.5 -8.5 h 4.5 4.5 v -4 -4 H 46.5 42 v -4.5 -4.5 h 4.5 4.5 v -8.5 -8.5 h 4 4 v -4 -4 h -4 -4 v -4 -4 h 4 4 v -4.5 -4.5 h 4.5 4.5 v -4 -4 H 63.5 59 v -4.5 -4.5 h 8.5 8.5 v -4 -4 H 72 68 V 542.5 534 H 76.5 85 V 529.5 525 H 80.5 76 v -8.5 -8.5 h 4.5 4.5 v -8.5 -8.5 h 4 4 v -4 -4 h -4 -4 v -4.5 -4.5 h 4 4 v -4 -4 h 4.5 4.5 V 461.5 457 H 97.5 93 v -4 -4 h 4.5 4.5 V 436.5 424 h 8.5 8.5 v -4.5 -4.5 h 12.5 12.5 v -4 -4 h 8.5 8.5 v 12.5 12.5 h 4 4 v 4 4 h -4 -4 v 4.5 4.5 h -8.5 -8.5 v 4 4 h 8.5 8.5 v 4.5 4.5 H 148.5 136 v 4 4 h 8.5 8.5 v 4.5 4.5 h -8.5 -8.5 v 4 4 h 8.5 8.5 v 4.5 4.5 h -8.5 -8.5 v 4 4 h 4 4 v 4.5 4.5 h -4 -4 v 8.5 8.5 h -4.5 -4.5 v 4 4 h 4.5 4.5 v 4.5 4.5 h -4.5 -4.5 v -4.5 -4.5 h -4 -4 v 13 13 h 4 4 v -4.5 -4.5 h 4.5 4.5 v 4.5 4.5 h -4.5 -4.5 v 4 4 h -4 -4 v 4.5 4.5 h -8.5 -8.5 v 4 4 h 4 4 v 4 4 h 4.5 4.5 v -4 -4 h 4 4 v 4 4 h -4 -4 v 4.5 4.5 h -4.5 -4.5 v 4 4 H 101.5 93 v 4.5 4.5 h 8.5 8.5 v 4 4 H 101.5 93 v 8.5 8.5 h 4.5 4.5 v -4 -4 h 4 4 v 4 4 h -4 -4 v 4.5 4.5 H 97.5 93 v 4 4 h 4.5 4.5 v 4.5 4.5 H 97.5 93 v 4 4 H 84.5 76 v 4.5 4.5 h 8.5 8.5 v 4 4 H 80.5 68 v 4.5 4.5 h 8.5 8.5 v 4 4 H 72 59 v 4.5 4.5 h 8.5 8.5 v 4 4 H 67.5 59 v -4 -4 h -4 -4 v 4 4 H 46.5 42 v 4 4 H 29.5 17 v 4.5 4.5 H 12.5 8 Z m 43,-72 V 669 H 46.5 42 v 4.5 4.5 h 4.5 4.5 z m 42,0 V 669 H 84.5 76 v 4.5 4.5 h 8.5 8.5 z m -42,-17 V 652 h 4 4 v -4 -4 h -4 -4 v 4 4 H 46.5 42 v 4.5 4.5 h 4.5 4.5 z m 42,0 V 652 h -4 -4 v 4.5 4.5 h 4 4 z m -34,-34 V 618 h 4.5 4.5 v -4 -4 H 63.5 59 v 4 4 h -4 -4 v 4.5 4.5 h 4 4 z m 51,-17 V 601 h -4 -4 v 4.5 4.5 h 4 4 z M 68,589 v -4 h 4 4 v -4.5 -4.5 h -4 -4 v 4.5 4.5 H 63.5 59 v 4 4 h 4.5 4.5 z m 51,-17 v -4 h -4.5 -4.5 v 4 4 h 4.5 4.5 z M 85,546.5 V 542 H 80.5 76 v 4.5 4.5 h 4.5 4.5 z m 42,-17 V 525 h -4 -4 v 4.5 4.5 h 4 4 z m -34,-17 V 508 h -4 -4 v 4.5 4.5 h 4 4 z m 43,0 V 508 h -4.5 -4.5 v 4.5 4.5 h 4.5 4.5 z m 0,-17 V 491 h -4.5 -4.5 v 4.5 4.5 h 4.5 4.5 z m -34,-17 V 474 H 97.5 93 v 4.5 4.5 h 4.5 4.5 z m 8,-25.5 v -4 h -4 -4 v 4 4 h 4 4 z m 9,-17 v -4 h -4.5 -4.5 v 4 4 h 4.5 4.5 z m 42,0 v -4 h -8.5 -8.5 v 4 4 h 8.5 8.5 z m 144,305 v -4 h 4.5 4.5 v 4 4 h -4.5 -4.5 z m -17,-8 v -4 H 271 254 V 720.5 712 H 241.5 229 v 4 4 h -8.5 -8.5 v -4 -4 h 8.5 8.5 v -4.5 -4.5 h -4.5 -4.5 v -4 -4 h -8.5 -8.5 v -4.5 -4.5 h 8.5 8.5 v -4 -4 h 4.5 4.5 v -4.5 -4.5 h -4.5 -4.5 v -4 -4 h -4 -4 v -4.5 -4.5 h 4 4 v 4.5 4.5 h 4.5 4.5 v -8.5 -8.5 h 4 4 v -4.5 -4.5 h -4 -4 v -4 -4 h -4.5 -4.5 v -4.5 -4.5 h 4.5 4.5 v 4.5 4.5 h 4 4 v -4.5 -4.5 h 4.5 4.5 v -8.5 -8.5 h -4.5 -4.5 v 4.5 4.5 h -4 -4 v -4.5 -4.5 h 4 4 v -4 -4 h -4 -4 v -4 -4 h 4 4 v 4 4 h 4.5 4.5 v -8.5 -8.5 h -4.5 -4.5 v -4 -4 h 4.5 4.5 v 4 4 h 4 4 V 563.5 551 h 4.5 4.5 v -8.5 -8.5 h 4 4 v -4.5 -4.5 h -8.5 -8.5 v -4 -4 h 8.5 8.5 v -8.5 -8.5 h 8.5 8.5 V 495.5 491 H 275.5 263 v -4 -4 h 12.5 12.5 v -4.5 -4.5 h -4 -4 v -8.5 -8.5 h -4.5 -4.5 v -4 -4 h 4.5 4.5 v 4 4 h 4 4 v -8.5 -8.5 h 4.5 4.5 v -4 -4 h -4.5 -4.5 v -4 -4 h -4 -4 v -4.5 -4.5 h 4 4 v 4.5 4.5 h 4.5 4.5 v -8.5 -8.5 h -4.5 -4.5 v -4.5 -4.5 h 4.5 4.5 v 4.5 4.5 h 4 4 v -4.5 -4.5 h 4.5 4.5 v -4 -4 h 12.5 12.5 v 4 4 h 12.5 12.5 v 4.5 4.5 h 4.5 4.5 v 4 4 h 4 4 v -4 -4 h 4.5 4.5 v 4 4 h -4.5 -4.5 v 8.5 8.5 h -4 -4 v 4 4 h 4 4 v 4.5 4.5 h -4 -4 v -4.5 -4.5 h -4.5 -4.5 v 13 13 H 351.5 339 v 4 4 h 17 17 v 4.5 4.5 h 4 4 v 4 4 h 4.5 4.5 v 4.5 4.5 h -4.5 -4.5 v -4.5 -4.5 h -4 -4 v -4 -4 h -17 -17 v 4 4 h 12.5 12.5 v 4.5 4.5 h 4.5 4.5 v 4 4 h -4.5 -4.5 v -4 -4 H 347.5 331 v 4 4 h 12.5 12.5 v 4.5 4.5 h 4 4 v 4 4 h 4.5 4.5 v 4.5 4.5 h -4.5 -4.5 v 4 4 h -4 -4 v -4 -4 h 4 4 v -4.5 -4.5 h -4 -4 v -4 -4 H 343.5 331 v 4 4 h 8 8 v 8.5 8.5 h -4 -4 v 13 13 h 4 4 v 4 4 h -4 -4 v -4 -4 h -8.5 -8.5 v 4 4 h 4.5 4.5 v 12.5 12.5 h 4 4 v 4.5 4.5 h -4 -4 v 4 4 h -4.5 -4.5 v 8.5 8.5 h 4.5 4.5 v 4.5 4.5 h -4.5 -4.5 v 4 4 h -8.5 -8.5 v 4.5 4.5 h 4.5 4.5 v 4 4 h -4.5 -4.5 v -4 -4 h -4 -4 v 8.5 8.5 h 8.5 8.5 v 4 4 h -8.5 -8.5 v 4.5 4.5 h 4 4 v 4 4 h -4 -4 v 4.5 4.5 h 4 4 v 4 4 h 4.5 4.5 v -4 -4 h 4 4 v 4 4 h -4 -4 v 4.5 4.5 h -4.5 -4.5 v -4.5 -4.5 h -4 -4 v -4 -4 h -4.5 -4.5 v 8.5 8.5 h 4.5 4.5 v 4 4 h -4.5 -4.5 z m 0,-25.5 V 703 h 4.5 4.5 v -4 -4 h -4.5 -4.5 v -4.5 -4.5 h 4.5 4.5 v -4 -4 h -4.5 -4.5 v -4.5 -4.5 h -4 -4 v 4.5 4.5 h 4 4 v 4 4 h -4 -4 v 4.5 4.5 h 4 4 v 4 4 h -8.5 -8.5 v 4.5 4.5 h 8.5 8.5 z M 237,699 v -4 h -4 -4 v -4.5 -4.5 h -4.5 -4.5 v 4.5 4.5 h 4.5 4.5 v 4 4 h 4 4 z m 9,-17 v -4 h -4.5 -4.5 v 4 4 h 4.5 4.5 z m -9,-17 v -4 h -4 -4 v 4 4 h 4 4 z m 17,0 v -4 h -4 -4 v 4 4 h 4 4 z m 43,-8.5 V 652 h 4 4 v -4 -4 h 8.5 8.5 V 639.5 635 H 309.5 297 v 8.5 8.5 h -4.5 -4.5 v 4.5 4.5 h 4.5 4.5 z M 246,648 v -4 h -4.5 -4.5 v 4 4 h 4.5 4.5 z m 17,-8.5 V 635 h -4.5 -4.5 v 4.5 4.5 h 4.5 4.5 z M 246,631 v -4 h 4 4 v -4.5 -4.5 h 4.5 4.5 v -4 -4 h -4.5 -4.5 v 4 4 h -4 -4 v 4.5 4.5 h -4.5 -4.5 v 4 4 h 4.5 4.5 z m 68,-8.5 V 618 h 4 4 v -4 -4 h 4.5 4.5 v -4.5 -4.5 h -4.5 -4.5 v -4 -4 h -4 -4 v -4 -4 h 4 4 v -4.5 -4.5 h -4 -4 v 4.5 4.5 h -4.5 -4.5 v 4 4 h 4.5 4.5 v 4 4 h -4.5 -4.5 v 4.5 4.5 h 4.5 4.5 v 4 4 h -8.5 -8.5 v 4.5 4.5 h 8.5 8.5 z m 0,-17 V 601 h 4 4 v 4.5 4.5 h -4 -4 z M 263,597 v -4 h -8.5 -8.5 v 4 4 h 8.5 8.5 z m 17,-8 v -4 h -4.5 -4.5 v 4 4 h 4.5 4.5 z m -17,-8.5 V 576 h 4 4 v -4 -4 h 4.5 4.5 v -4.5 -4.5 h -4.5 -4.5 v -4 -4 h 4.5 4.5 v -4.5 -4.5 h -4.5 -4.5 v 4.5 4.5 h -4 -4 v 4 4 h 4 4 v 4.5 4.5 h -4 -4 v 4 4 h -4.5 -4.5 v 4.5 4.5 h 4.5 4.5 z m 59,-17 V 559 h 4.5 4.5 v -8.5 -8.5 h 4 4 v -4 -4 h -4 -4 v -4.5 -4.5 h -4.5 -4.5 v 4.5 4.5 h 4.5 4.5 v 4 4 h -4.5 -4.5 v 8.5 8.5 h -4 -4 v 4.5 4.5 h 4 4 z m -34,-34 V 525 h -4 -4 v -4 -4 h 4 4 v -4.5 -4.5 h -4 -4 v 4.5 4.5 h -4.5 -4.5 v 4 4 h 4.5 4.5 v 4.5 4.5 h 4 4 z M 305,504 v -4 h -4 -4 v 4 4 h 4 4 z m -8,-17 v -4 h -4.5 -4.5 v 4 4 h 4.5 4.5 z m 8,-17 v -4 h 4.5 4.5 v -4.5 -4.5 h -4.5 -4.5 v 4.5 4.5 h -4 -4 v -4.5 -4.5 h -4.5 -4.5 v 4.5 4.5 h 4.5 4.5 v 4 4 h 4 4 z m 51,-17 v -4 h -4.5 -4.5 v 4 4 h 4.5 4.5 z m -51,-8.5 V 440 h -4 -4 v 4.5 4.5 h 4 4 z m 17,-8.5 v -4 h -4 -4 v 4 4 h 4 4 z m 42,0 v -4 h 4.5 4.5 v -8.5 -8.5 h -4.5 -4.5 v -4 -4 h -4 -4 v 4 4 h 4 4 v 8.5 8.5 h -8.5 -8.5 v 4 4 h 8.5 8.5 z m -59,-8 v -4 h 4.5 4.5 v -4.5 -4.5 h 4 4 v -4 -4 h -4 -4 v 4 4 h -4.5 -4.5 v 4.5 4.5 h -4 -4 v 4 4 h 4 4 z M 93,724.5 V 720 h 4.5 4.5 v 4.5 4.5 H 97.5 93 Z m 68,-8.5 v -4 h 8.5 8.5 v 4 4 h -8.5 -8.5 z m 153,-17 v -4 h 4 4 v 4 4 h -4 -4 z m 17,-8.5 V 686 h -4.5 -4.5 v -4 -4 h 4.5 4.5 v 4 4 h 4 4 v 4.5 4.5 h -4 -4 z m -128,-17 V 669 h 4.5 4.5 v 4.5 4.5 H 207.5 203 Z M 322,665 v -4 h 4.5 4.5 v -4.5 -4.5 h 4 4 v 4.5 4.5 h -4 -4 v 4 4 H 326.5 322 Z M 212,639.5 V 635 h 4 4 v 4.5 4.5 h -4 -4 z m 127,0 V 635 h 4 4 v 4.5 4.5 h -4 -4 z m 0,-17 V 618 h 4 4 v 4.5 4.5 h -4 -4 z m 8,-17 V 601 h 4.5 4.5 v 4.5 4.5 H 351.5 347 Z M 339,589 v -4 h 4 4 v 4 4 h -4 -4 z m 17,0 v -4 h 4 4 v 4 4 h -4 -4 z m 0,-17 v -4 h 4 4 v 4 4 h -4 -4 z M 237,555 v -4 h 4.5 4.5 v 4 4 h -4.5 -4.5 z m 110,0 v -4 h 4.5 4.5 v 4 4 h -4.5 -4.5 z m 17,0 v -4 h 4.5 4.5 v 4 4 H 368.5 364 Z M 246,538 v -4 h 4 4 v 4 4 h -4 -4 z M 381,512.5 V 508 h 4.5 4.5 v 4.5 4.5 H 385.5 381 Z M 254,504 v -4 h 4.5 4.5 v 4 4 h -4.5 -4.5 z m 9,-34 v -4 h 4 4 v 4 4 h -4 -4 z m 118,0 v -4 h -4 -4 v -4.5 -4.5 h 4 4 v 4.5 4.5 h 4.5 4.5 v -4.5 -4.5 h 4 4 v 4.5 4.5 h -4 -4 v 4 4 h -4.5 -4.5 z m 9,-25.5 V 440 h 4 4 v -4 -4 h -4 -4 v -4 -4 h 4 4 v 4 4 h 4.5 4.5 v 4 4 h -4.5 -4.5 v 4.5 4.5 h -4 -4 z M 271,436 v -4 h 4.5 4.5 v 4 4 H 275.5 271 Z M 169,419.5 V 415 h 4.5 4.5 v 4.5 4.5 h -4.5 -4.5 z m 0,-17 V 398 h 4.5 4.5 v 4.5 4.5 h -4.5 -4.5 z m 26,-8.5 v -4 h 4 4 v 4 4 h -4 -4 z m 68,-8.5 V 381 h 17 17 v 4.5 4.5 h -17 -17 z"
       id="path28" />
    <path
       style="fill:#e6b117"
       d="M 551,868.5 V 864 h -8.5 -8.5 v -4 -4 h -4.5 -4.5 v 4 4 h -4 -4 v -4 -4 h -4.5 -4.5 v -4.5 -4.5 h -4 -4 v 4.5 4.5 h -4 -4 v -4.5 -4.5 h -8.5 -8.5 v -4 -4 h 8.5 8.5 v -8.5 -8.5 h 4 4 v -4.5 -4.5 h -4 -4 v -4 -4 h 4 4 v -4.5 -4.5 h -4 -4 v -4 -4 h 4 4 v -4.5 -4.5 h 4 4 v 4.5 4.5 h 13 13 v -4.5 -4.5 h -8.5 -8.5 v -4 -4 h -4.5 -4.5 v -4.5 -4.5 h -4 -4 v -4 -4 h 4 4 v 4 4 h 4.5 4.5 v -4 -4 h 12.5 12.5 v -4.5 -4.5 h -8.5 -8.5 v -4 -4 h 8.5 8.5 v -4 -4 H 529.5 517 v -4.5 -4.5 h -4.5 -4.5 v -4 -4 h -4 -4 v -4.5 -4.5 h 4 4 v 4.5 4.5 h 4.5 4.5 v -4.5 -4.5 h 4 4 v 4.5 4.5 h -4 -4 v 4 4 h 12.5 12.5 v -4 -4 h -4 -4 v -4.5 -4.5 h 4 4 v -4 -4 h -8.5 -8.5 v -4.5 -4.5 h 8.5 8.5 V 673.5 661 h -4 -4 v -4.5 -4.5 h 4 4 v 4.5 4.5 h 4.5 4.5 v 12.5 12.5 h 4 4 v -17 -17 h -4 -4 v -4 -4 h -4.5 -4.5 v -8.5 -8.5 h 4.5 4.5 v -4.5 -4.5 h -4.5 -4.5 v -4 -4 h -4 -4 v -4.5 -4.5 h 4 4 v 4.5 4.5 h 4.5 4.5 v 4 4 h 4 4 v 4.5 4.5 h 4.5 4.5 v -4.5 -4.5 h 4 4 v -8.5 -8.5 h -4 -4 v 4.5 4.5 h -4.5 -4.5 v -4.5 -4.5 h -4 -4 v -4 -4 h 4 4 v -4 -4 h 4.5 4.5 v 4 4 h 4 4 v -8.5 -8.5 h -4 -4 v -4 -4 h 4 4 v -4.5 -4.5 h -4 -4 v -4 -4 h 4 4 v -4.5 -4.5 h -4 -4 v -4 -4 h 8.5 8.5 v -4.5 -4.5 h 4 4 v 4.5 4.5 h 13 13 v 4 4 h 76 76 v -4 -4 h 17 17 v -4.5 -4.5 h 13 13 v -4 -4 h 8 8 v -4.5 -4.5 h 13 13 v 8.5 8.5 h -4.5 -4.5 v 13 13 h -4 -4 v 12.5 12.5 h -4.5 -4.5 v 17 17 h -4 -4 v 17 17 h -4 -4 v 12.5 12.5 h -4.5 -4.5 v 17 17 h -4 -4 v 13 13 h -4.5 -4.5 v 16.5 16.5 h -4 -4 v 13 13 h -4.5 -4.5 v 17 17 h -4 -4 v 4 4 h -4.5 -4.5 v 4.5 4.5 H 758.5 746 v 4 4 h -13 -13 v 4.5 4.5 H 707.5 695 v 4 4 h -17 -17 v 4.5 4.5 H 614.5 568 v -4.5 -4.5 h -4.5 -4.5 v 4.5 4.5 h -4 -4 z M 500,843 v -4 h 8.5 8.5 v 4 4 h 4 4 v -4 -4 h 4.5 4.5 v -4.5 -4.5 h -4.5 -4.5 v -4 -4 h 4.5 4.5 v -4.5 -4.5 h -4.5 -4.5 v 4.5 4.5 h -4 -4 v -4.5 -4.5 h -4.5 -4.5 v -4 -4 h 13 13 v -4.5 -4.5 h -13 -13 v -4 -4 h -4 -4 v 4 4 h 4 4 v 4.5 4.5 h -4 -4 v 4 4 h 4 4 v 4.5 4.5 h -4 -4 v 8.5 8.5 h -4 -4 v 4 4 h 4 4 z m 17,-8.5 V 830 h -4.5 -4.5 v -4 -4 h 4.5 4.5 v 4 4 h 4 4 v 4.5 4.5 h -4 -4 z m 34,8.5 v -4 h -4.5 -4.5 v 4 4 h 4.5 4.5 z m 0,-17 v -4 h -4.5 -4.5 v 4 4 h 4.5 4.5 z m 0,-17 v -4 h -4.5 -4.5 v 4 4 h 4.5 4.5 z m 17,-8.5 V 796 h -4.5 -4.5 v 4.5 4.5 h 4.5 4.5 z M 551,792 v -4 h -4.5 -4.5 v 4 4 h 4.5 4.5 z m -9,-17 v -4 h -4 -4 v -4.5 -4.5 h -8.5 -8.5 v 4.5 4.5 h 8.5 8.5 v 4 4 h 4 4 z m 17,0 v -4 h 4.5 4.5 v -4.5 -4.5 h -4.5 -4.5 v 4.5 4.5 h -4 -4 v 4 4 h 4 4 z m -8,-17 v -4 h 4 4 v -4.5 -4.5 h -4 -4 v 4.5 4.5 h -4.5 -4.5 v 4 4 h 4.5 4.5 z m 34,0 v -4 h -4.5 -4.5 v 4 4 h 4.5 4.5 z m -9,-17 v -4 h -4 -4 v 4 4 h 4 4 z m -17,-8 v -4 h -4 -4 v -4.5 -4.5 h 4 4 v -4 -4 h -4 -4 v -4.5 -4.5 h 4 4 v -4 -4 h -4 -4 v -4.5 -4.5 h -4.5 -4.5 v 4.5 4.5 h 4.5 4.5 v 4 4 h -4.5 -4.5 v 4.5 4.5 h 4.5 4.5 v 4 4 h -4.5 -4.5 v 4.5 4.5 h 4.5 4.5 v 4 4 h 4 4 z m 17,-8.5 V 720 h -4 -4 v 4.5 4.5 h 4 4 z m 17,-8.5 v -4 h -4 -4 v 4 4 h 4 4 z m -17,-8.5 V 703 h 4.5 4.5 v -4 -4 h -4.5 -4.5 v -4.5 -4.5 h -4 -4 v 4.5 4.5 h 4 4 v 4 4 h -4 -4 v 4.5 4.5 h 4 4 z M 593,682 v -4 h -4 -4 v 4 4 h 4 4 z m -17,-8.5 V 669 h 4.5 4.5 v -4 -4 h -4.5 -4.5 v -4.5 -4.5 h -4 -4 v -4 -4 h -4.5 -4.5 v -8.5 -8.5 h -4 -4 v 8.5 8.5 h 4 4 v 4 4 h 4.5 4.5 v 4.5 4.5 h 4 4 v 4 4 h -4 -4 v 4.5 4.5 h 4 4 z m 34,-8.5 v -4 h -4 -4 v 4 4 h 4 4 z m -17,-17 v -4 h -4 -4 v -4.5 -4.5 h 4 4 v -4 -4 h -4 -4 v 4 4 h -4.5 -4.5 v -4 -4 h -4 -4 v 4 4 h 4 4 v 4.5 4.5 h 4.5 4.5 v 4 4 h 4 4 z m 17,-8.5 V 635 h -4 -4 v 4.5 4.5 h 4 4 z m 0,-17 V 618 h -4 -4 v 4.5 4.5 h 4 4 z M 593,614 v -4 h -4 -4 v 4 4 h 4 4 z m 17,-8.5 V 601 h -4 -4 v 4.5 4.5 h 4 4 z M 568,597 v -4 h -4.5 -4.5 v 4 4 h 4.5 4.5 z m 25,0 v -4 h 4.5 4.5 v -4 -4 h 4 4 v -4.5 -4.5 h -4 -4 v 4.5 4.5 h -4.5 -4.5 v -4.5 -4.5 h -4 -4 v -4 -4 h 4 4 v -4.5 -4.5 h 4.5 4.5 v 4.5 4.5 h 4 4 v -4.5 -4.5 h -4 -4 v -4 -4 h 4 4 v -4.5 -4.5 h -4 -4 v 4.5 4.5 h -4.5 -4.5 v -8.5 -8.5 h -4 -4 v 8.5 8.5 h -4.5 -4.5 v 4 4 h 4.5 4.5 v 4.5 4.5 h -4.5 -4.5 v 4 4 h 4.5 4.5 v 4.5 4.5 h 4 4 v 4 4 h -8.5 -8.5 v 4 4 h 8.5 8.5 z m -8,-42 v -4 h 4 4 v 4 4 h -4 -4 z m 42,42 v -4 h -4 -4 v 4 4 h 4 4 z m 0,-25 v -4 h -4 -4 v 4 4 h 4 4 z m 0,-17 v -4 h -4 -4 v 4 4 h 4 4 z M 441,826 v -4 h 4 4 v 4 4 h -4 -4 z m 17,0 v -4 h 4 4 v 4 4 h -4 -4 z m -51,-17 v -4 h 4 4 v 4 4 h -4 -4 z m 68,-25.5 V 779 h 4 4 v 4.5 4.5 h -4 -4 z M 415,775 v -4 h 4.5 4.5 v 4 4 h -4.5 -4.5 z m 9,-29.5 V 737 h 4 4 v 8.5 8.5 h -4 -4 z m 42,4 V 745 h 4.5 4.5 v 4.5 4.5 h -4.5 -4.5 z m 42,-8.5 v -4 h 4.5 4.5 v 4 4 H 512.5 508 Z M 432,724.5 V 720 h 4.5 4.5 v 4.5 4.5 h -4.5 -4.5 z m 9,-34 V 686 h 4 4 v 4.5 4.5 h -4 -4 z m 67,0 V 686 h 4.5 4.5 v 4.5 4.5 h -4.5 -4.5 z m 17,-17 V 669 h 4.5 4.5 v 4.5 4.5 H 529.5 525 Z M 458,631 v -4 h 4 4 v 4 4 h -4 -4 z m 76,-42 v -4 h 4 4 v 4 4 h -4 -4 z m 17,-17 v -4 h 4 4 v 4 4 h -4 -4 z m -17,-17 v -4 h 4 4 v 4 4 h -4 -4 z m 34,-34 v -4 h 4 4 v 4 4 h -4 -4 z M 161,343 v -4 h 4 4 v 4 4 h -4 -4 z m 17,0 v -4 h 4 4 v 4 4 h -4 -4 z m 34,-8.5 V 330 h 4 4 v 4.5 4.5 h -4 -4 z m 17,0 V 330 h 4 4 v 4.5 4.5 h -4 -4 z M 178,326 v -4 h 4 4 v 4 4 h -4 -4 z m 17,0 v -4 h 4 4 v 4 4 h -4 -4 z m 68,0 v -4 h 4 4 v 4 4 h -4 -4 z m 42,0 v -4 h 4.5 4.5 v 4 4 h -4.5 -4.5 z m -85,-8.5 V 313 h 4.5 4.5 v 4.5 4.5 h -4.5 -4.5 z m 60,0 V 313 h 4 4 v -4 -4 h 4.5 4.5 v 4 4 h -4.5 -4.5 v 4.5 4.5 h -4 -4 z M 178,309 v -4 h 4 4 v 4 4 h -4 -4 z m 25,0 v -4 h 4.5 4.5 v 4 4 h -4.5 -4.5 z m 34,0 v -4 h 4.5 4.5 v 4 4 h -4.5 -4.5 z m 17,0 v -4 h 4.5 4.5 v -4.5 -4.5 h 4 4 v 4.5 4.5 h -4 -4 v 4 4 h -4.5 -4.5 z m 51,0 v -4 h 4.5 4.5 v 4 4 h -4.5 -4.5 z m -85,-17 v -4 h -4 -4 v -4 -4 h 4 4 v -4.5 -4.5 h 4.5 4.5 v 4.5 4.5 h -4.5 -4.5 v 4 4 h 4.5 4.5 v 4 4 h -4.5 -4.5 z m 26,0 v -4 h -4.5 -4.5 v -4 -4 h 4.5 4.5 v -4.5 -4.5 h 4 4 v 4.5 4.5 h -4 -4 v 4 4 h 4 4 v 4 4 h -4 -4 z m 68,0 v -4 h 4 4 v 4 4 h -4 -4 z m -119,-8 v -4 h 4 4 v 4 4 h -4 -4 z m 68,0 v -4 h 4 4 v 4 4 h -4 -4 z m 25,0 v -4 h 4.5 4.5 v 4 4 H 292.5 288 Z M 178,275.5 V 271 h 4 4 v 4.5 4.5 h -4 -4 z m 127,0 V 271 h 4.5 4.5 v 4.5 4.5 H 309.5 305 Z M 195,267 v -4 h 4 4 v 4 4 h -4 -4 z m 93,0 v -4 h -4 -4 v -4.5 -4.5 h 4 4 v 4.5 4.5 h 4.5 4.5 v 4 4 h -4.5 -4.5 z m -59,-8.5 V 254 h 4 4 v 4.5 4.5 h -4 -4 z m 34,0 V 254 h 4 4 v 4.5 4.5 h -4 -4 z M 203,250 v -4 h 4.5 4.5 v 4 4 h -4.5 -4.5 z m 43,0 v -4 h 4 4 v 4 4 h -4 -4 z m 76,0 v -4 h 4.5 4.5 v 4 4 H 326.5 322 Z M 220,241.5 V 237 h 4.5 4.5 v 4.5 4.5 h -4.5 -4.5 z m 60,0 V 237 h 4 4 v 4.5 4.5 h -4 -4 z m 25,0 V 237 h 4.5 4.5 v 4.5 4.5 H 309.5 305 Z M 195,233 v -4 h 4 4 v 4 4 h -4 -4 z m 51,0 v -4 h 4 4 v 4 4 h -4 -4 z m 17,0 v -4 h 4 4 v 4 4 h -4 -4 z m -43,-8.5 V 220 h 4.5 4.5 v 4.5 4.5 h -4.5 -4.5 z m 60,0 V 220 h 4 4 v 4.5 4.5 h -4 -4 z m 25,0 V 220 h -4 -4 v -4 -4 h 4 4 v 4 4 h 4.5 4.5 v 4.5 4.5 h -4.5 -4.5 z m 26,0 V 220 h 4 4 v 4.5 4.5 h -4 -4 z M 237,216 v -4 h 4.5 4.5 v -4.5 -4.5 h 4 4 v 4.5 4.5 h -4 -4 v 4 4 h -4.5 -4.5 z m 26,0 v -4 h 4 4 v 4 4 h -4 -4 z m -43,-8.5 V 203 h 4.5 4.5 v 4.5 4.5 h -4.5 -4.5 z m 102,0 V 203 h 4.5 4.5 v 4.5 4.5 H 326.5 322 Z M 203,199 v -4 h 4.5 4.5 v 4 4 h -4.5 -4.5 z m 68,0 v -4 h 4.5 4.5 v 4 4 h -4.5 -4.5 z m 17,0 v -4 h 4.5 4.5 v -4.5 -4.5 h 4 4 v 4.5 4.5 h -4 -4 v 4 4 h -4.5 -4.5 z m -68,-8.5 V 186 h 4.5 4.5 v 4.5 4.5 h -4.5 -4.5 z m 111,0 V 186 h -4.5 -4.5 v -4 -4 h 4.5 4.5 v 4 4 h 4 4 v 4.5 4.5 h -4 -4 z M 237,182 v -4 h 4.5 4.5 v 4 4 h -4.5 -4.5 z m 17,0 v -4 h 4.5 4.5 v 4 4 h -4.5 -4.5 z m 26,0 v -4 h -4.5 -4.5 v -4.5 -4.5 h 4.5 4.5 v 4.5 4.5 h 4 4 v 4 4 h -4 -4 z m 17,-8.5 V 169 h 4 4 v 4.5 4.5 h -4 -4 z M 229,165 v -4 h 4 4 v 4 4 h -4 -4 z m 93,0 v -4 h 4.5 4.5 v -4.5 -4.5 h 4 4 v 4.5 4.5 h -4 -4 v 4 4 H 326.5 322 Z M 212,156.5 V 152 h 4 4 v 4.5 4.5 h -4 -4 z m 34,0 V 152 h 4 4 v 4.5 4.5 h -4 -4 z m 17,0 V 152 h 4 4 v 4.5 4.5 h -4 -4 z m 17,0 V 152 h 4 4 v 4.5 4.5 h -4 -4 z m 25,0 V 152 h 4.5 4.5 v 4.5 4.5 h -4.5 -4.5 z m 42,0 V 152 h 4.5 4.5 v 4.5 4.5 H 351.5 347 Z M 229,148 v -4 h 4 4 v 4 4 h -4 -4 z m 34,-8 v -4 h 4 4 v 4 4 h -4 -4 z m 17,0 v -4 h 4 4 v 4 4 h -4 -4 z m 25,0 v -4 h 4.5 4.5 v 4 4 h -4.5 -4.5 z m -68,-8.5 V 127 h 4.5 4.5 v 4.5 4.5 h -4.5 -4.5 z m 43,-8.5 v -4 h 4 4 v 4 4 h -4 -4 z m 25,0 v -4 h 4.5 4.5 v 4 4 h -4.5 -4.5 z m 17,0 v -4 h 4.5 4.5 v 4 4 h -4.5 -4.5 z m 17,0 v -4 h 4 4 v 4 4 h -4 -4 z m 17,0 v -4 h 4 4 v 4 4 h -4 -4 z M 229,114.5 V 110 h 4 4 v 4.5 4.5 h -4 -4 z m 34,0 V 110 h -4.5 -4.5 v -4 -4 h 4.5 4.5 v 4 4 h 4 4 v 4.5 4.5 h -4 -4 z m 17,-8.5 v -4 h 4 4 v 4 4 h -4 -4 z m 17,0 v -4 h 4 4 v 4 4 h -4 -4 z m 17,0 v -4 h 4 4 v 4 4 h -4 -4 z m 17,0 v -4 h 4 4 v 4 4 h -4 -4 z m 42,0 v -4 h 4 4 v 4 4 h -4 -4 z M 347,97.5 V 93 h 4.5 4.5 v 4.5 4.5 H 351.5 347 Z M 246,89 v -4 h 4 4 v 4 4 h -4 -4 z m 34,0 v -4 h 4 4 v 4 4 h -4 -4 z m 17,0 v -4 h 4 4 v 4 4 h -4 -4 z m 17,0 v -4 h 4 4 v 4 4 h -4 -4 z M 263,80.5 V 76 h 4 4 v 4.5 4.5 h -4 -4 z m 76,0 V 76 h 4 4 v 4.5 4.5 h -4 -4 z m 25,0 V 76 h 4.5 4.5 V 80.5 85 H 368.5 364 Z M 288,72 v -4 h 4.5 4.5 v 4 4 H 292.5 288 Z M 237,63.5 V 59 h 4.5 4.5 v 4.5 4.5 h -4.5 -4.5 z m 26,0 V 59 h 4 4 v 4.5 4.5 h -4 -4 z m 42,0 V 59 h 8.5 8.5 v 4.5 4.5 h -8.5 -8.5 z m 34,0 V 59 h 4 4 v 4.5 4.5 h -4 -4 z M 364,55 v -4 h -4 -4 V 46.5 42 h 4 4 v 4.5 4.5 h 4.5 4.5 v 4 4 h -4.5 -4.5 z m 17,0 v -4 h 4.5 4.5 v 4 4 H 385.5 381 Z M 271,46.5 V 42 h 4.5 4.5 v 4.5 4.5 h -4.5 -4.5 z m 26,0 V 42 h 4 4 v -4 -4 h 4.5 4.5 v 4 4 h -4.5 -4.5 v 4.5 4.5 h -4 -4 z m 25,0 V 42 h 4.5 4.5 V 46.5 51 H 326.5 322 Z M 254,38 v -4 h 4.5 4.5 v 4 4 h -4.5 -4.5 z m 85,0 v -4 h 4 4 v 4 4 h -4 -4 z M 271,29.5 V 25 h 4.5 4.5 v 4.5 4.5 h -4.5 -4.5 z m 51,0 V 25 h 4.5 4.5 v 4.5 4.5 h -4.5 -4.5 z m 34,0 V 25 h 4 4 v 4.5 4.5 h -4 -4 z M 288,21 v -4 h 4.5 4.5 v 4 4 h -4.5 -4.5 z m 17,0 v -4 h 4.5 4.5 v 4 4 h -4.5 -4.5 z m 68,0 v -4 h 4 4 v 4 4 h -4 -4 z m 17,0 v -4 h 4 4 v 4 4 h -4 -4 z M 322,12.5 V 8 h 4.5 4.5 v 4.5 4.5 h -4.5 -4.5 z m 17,0 V 8 h 4 4 v 4.5 4.5 h -4 -4 z m 17,0 V 8 h 4 4 v 4.5 4.5 h -4 -4 z"
       id="path27" />
    <path
       style="fill:#ea641b"
       d="m 466,843 v -4 h 4.5 4.5 v 4 4 h -4.5 -4.5 z m 42,-8.5 V 830 h 4.5 4.5 v 4.5 4.5 H 512.5 508 Z M 475,826 v -4 h 4 4 v -4.5 -4.5 h 4.5 4.5 v 4.5 4.5 h -4.5 -4.5 v 4 4 h -4 -4 z M 458,800.5 V 796 h 4 4 v 4.5 4.5 h -4 -4 z m 17,0 V 796 h 4 4 v 4.5 4.5 h -4 -4 z M 415,792 v -4 h 4.5 4.5 v 4 4 h -4.5 -4.5 z m 51,-17 v -4 h 4.5 4.5 v 4 4 h -4.5 -4.5 z m 26,0 v -4 h 4 4 v 4 4 h -4 -4 z m 16,0 v -4 h 4.5 4.5 v 4 4 h -4.5 -4.5 z m -84,-8.5 V 762 h 4 4 v 4.5 4.5 h -4 -4 z m 59,-8.5 v -4 h 4.5 4.5 v -4.5 -4.5 h 4 4 v 4.5 4.5 h -4 -4 v 4 4 h -4.5 -4.5 z m 34,-17 v -4 h 4 4 v 4 4 h -4 -4 z m -34,-8 v -4 h 4.5 4.5 v 4 4 h -4.5 -4.5 z m 17,0 v -4 h 4 4 v 4 4 h -4 -4 z M 441,707.5 V 703 h 4 4 v 4.5 4.5 h -4 -4 z m 42,0 V 703 h 4.5 4.5 v 4.5 4.5 h -4.5 -4.5 z m 42,0 V 703 h 4.5 4.5 v 4.5 4.5 H 529.5 525 Z M 492,682 v -4 h 4 4 v 4 4 h -4 -4 z m -43,-8.5 V 669 h 4.5 4.5 v 4.5 4.5 h -4.5 -4.5 z m 68,0 V 669 h 4 4 v 4.5 4.5 h -4 -4 z M 500,665 v -4 h 4 4 v 4 4 h -4 -4 z m -51,-8.5 V 652 h 4.5 4.5 v 4.5 4.5 h -4.5 -4.5 z m 68,0 V 652 h 4 4 v 4.5 4.5 h -4 -4 z m 25,0 V 652 h 4.5 4.5 v 4.5 4.5 h -4.5 -4.5 z m -34,-17 V 635 h 4.5 4.5 v 4.5 4.5 h -4.5 -4.5 z m 17,0 V 635 h 4.5 4.5 v 4.5 4.5 h -4.5 -4.5 z m 0,-17 V 618 h 4.5 4.5 v 4.5 4.5 H 529.5 525 Z M 466,614 v -4 h 4.5 4.5 v 4 4 h -4.5 -4.5 z m 42,0 v -4 h 4.5 4.5 v 4 4 h -4.5 -4.5 z m 51,0 v -4 h 4.5 4.5 v 4 4 h -4.5 -4.5 z m -93,-17 v -4 h 4.5 4.5 v 4 4 h -4.5 -4.5 z m 51,0 v -4 h 4 4 v 4 4 h -4 -4 z m 51,-8 v -4 h 4 4 v 4 4 h -4 -4 z m -93,-8.5 V 576 h 4 4 v 4.5 4.5 h -4 -4 z m 67,0 V 576 h 4.5 4.5 v 4.5 4.5 H 546.5 542 Z M 525,572 v -4 h 4.5 4.5 v 4 4 h -4.5 -4.5 z m -50,-8.5 V 559 h 4 4 v 4.5 4.5 h -4 -4 z m 84,0 V 559 h -4 -4 v -4 -4 h 4 4 v 4 4 h 4.5 4.5 v 4.5 4.5 H 563.5 559 Z M 542,538 v -4 h 4.5 4.5 v 4 4 h -4.5 -4.5 z m 17,0 v -4 h 4.5 4.5 v 4 4 h -4.5 -4.5 z m -67,-17 v -4 h 4 4 v 4 4 h -4 -4 z m 59,0 v -4 h 4 4 v 4 4 h -4 -4 z m -17,-8.5 V 508 h 4 4 v 4.5 4.5 h -4 -4 z m -76,-127 V 381 h 4 4 v 4.5 4.5 h -4 -4 z M 441,377 v -4 h -4.5 -4.5 v -4.5 -4.5 h -8.5 -8.5 v -4 -4 h 8.5 8.5 v 4 4 h 4.5 4.5 v 4.5 4.5 h 4 4 v 4 4 h -4 -4 z M 119,356 v -17 h 4 4 v -13 -13 h 4.5 4.5 V 300.5 288 h 4 4 v -17 -17 h 4.5 4.5 V 241.5 229 h 4 4 v -17 -17 h 4 4 v -17 -17 h 4.5 4.5 V 148.5 136 h 4 4 v -13 -13 h 4.5 4.5 V 93 76 h 4 4 V 63.5 51 h 4.5 4.5 V 46.5 42 h 8.5 8.5 V 38 34 H 241.5 254 V 29.5 25 h 8.5 8.5 v 4.5 4.5 h 4.5 4.5 V 25.5 17 h 4 4 v 4 4 h 4.5 4.5 v -4 -4 h 4 4 V 12.5 8 h 8.5 8.5 v 4.5 4.5 h 4.5 4.5 V 12.5 8 h 4 4 v 4.5 4.5 h 4 4 V 12.5 8 h 4.5 4.5 v 4.5 4.5 h 4 4 V 12.5 8 h 4.5 4.5 V 4 0 h 21 21 v 4 4 h 21.5 21.5 v 4.5 4.5 h 4 4 v 4 4 h 4.5 4.5 v -4 -4 h 4 4 v 4 4 h -4 -4 v 4.5 4.5 h 8.5 8.5 V 29.5 25 h 4 4 v 4.5 4.5 h -4 -4 v 4 4 h -8.5 -8.5 v 4.5 4.5 h 8.5 8.5 v 4 4 h -4.5 -4.5 v 4.5 4.5 h -4 -4 v 4 4 h 4 4 v 4.5 4.5 h 4.5 4.5 v 4 4 h -4.5 -4.5 v -4 -4 h -4 -4 v 4 4 h -4.5 -4.5 v 8.5 8.5 h 4.5 4.5 v -4 -4 h 4 4 v 4 4 h -4 -4 v 4.5 4.5 h -4.5 -4.5 v 4 4 h 4.5 4.5 v 4.5 4.5 h -4.5 -4.5 v 4 4 h -8.5 -8.5 v 4 4 h 4.5 4.5 v 8.5 8.5 h 4 4 v 4.5 4.5 h -4 -4 v -4.5 -4.5 h -4.5 -4.5 v 8.5 8.5 h 4.5 4.5 v 4.5 4.5 h -4.5 -4.5 v -4.5 -4.5 h -4 -4 v 4.5 4.5 h -4.5 -4.5 v 4 4 h 4.5 4.5 v 8.5 8.5 h 4 4 v 4.5 4.5 h -4 -4 v -4.5 -4.5 h -4.5 -4.5 v 4.5 4.5 h -4 -4 v 4 4 h 4 4 v 8.5 8.5 h 4.5 4.5 v 4.5 4.5 h -4.5 -4.5 v -4.5 -4.5 h -4 -4 v 4.5 4.5 h -4.5 -4.5 v 4 4 h 4.5 4.5 v 8.5 8.5 h 4 4 v 4 4 h -4 -4 v -4 -4 h -4.5 -4.5 v 8.5 8.5 h 4.5 4.5 v 4 4 h -4.5 -4.5 v -4 -4 h -4 -4 v 4 4 h -4.5 -4.5 v 4.5 4.5 h 4.5 4.5 v 8.5 8.5 h 4 4 v 4 4 h -4 -4 v 4.5 4.5 h -4.5 -4.5 v -4.5 -4.5 h -17 -17 v -4 -4 H 300.5 237 v -4.5 -4.5 h -17 -17 v 4.5 4.5 h 13 13 v 4 4 H 207.5 186 v 4.5 4.5 H 173.5 161 v 4 4 H 148.5 136 v 4.5 4.5 h -8.5 -8.5 z m 50,-13 v -4 h -4 -4 v 4 4 h 4 4 z m 17,0 v -4 h -4 -4 v 4 4 h 4 4 z m 221,0 v -4 h -4.5 -4.5 v -8.5 -8.5 h -4 -4 v 8.5 8.5 h 4 4 v 4 4 h 4.5 4.5 z m -26,-8.5 V 330 h -4 -4 v 4.5 4.5 h 4 4 z M 186,326 v -4 h -4 -4 v 4 4 h 4 4 z m 17,0 v -4 h -4 -4 v 4 4 h 4 4 z m 43,0 v -4 h 4 4 v 4 4 h 13 13 v -4 -4 h 4 4 v 4 4 h 4.5 4.5 v -4 -4 h -4.5 -4.5 v -4.5 -4.5 h 4.5 4.5 v -4 -4 h -4.5 -4.5 v -4.5 -4.5 h -4 -4 v 4.5 4.5 h 4 4 v 4 4 h -4 -4 v 4.5 4.5 h -13 -13 v -4.5 -4.5 h 8.5 8.5 v -21 -21 h -4 -4 v -4 -4 h 12.5 12.5 v 4 4 h -4 -4 v 4.5 4.5 h 4 4 v 4 4 h 4.5 4.5 v -4 -4 h -4.5 -4.5 v -4.5 -4.5 h 4.5 4.5 v -4 -4 h -4.5 -4.5 v -4.5 -4.5 h 4.5 4.5 v -4 -4 h -4.5 -4.5 v -4.5 -4.5 h 4.5 4.5 v -4 -4 h -4.5 -4.5 v -8.5 -8.5 h 4.5 4.5 v 4 4 h 4 4 v 4.5 4.5 h 4.5 4.5 v -4.5 -4.5 h -4.5 -4.5 v -4 -4 h 4.5 4.5 v -4.5 -4.5 h -4.5 -4.5 v 4.5 4.5 h -4 -4 v -8.5 -8.5 h 4 4 v -4.5 -4.5 h 4.5 4.5 v -4 -4 h 4 4 v 4 4 h 4.5 4.5 v 4.5 4.5 h 4 4 v -4.5 -4.5 h -4 -4 v -4 -4 h -4.5 -4.5 v -4.5 -4.5 h 4.5 4.5 v -4 -4 h 4 4 v -4.5 -4.5 h -4 -4 v 4.5 4.5 h -4.5 -4.5 v 4 4 h -4 -4 v 4.5 4.5 h -4.5 -4.5 v -4.5 -4.5 h -4 -4 v -4 -4 h 8.5 8.5 v -4.5 -4.5 h 4 4 v -4 -4 h -4 -4 v -4 -4 h 4 4 v -4.5 -4.5 h 4.5 4.5 v -4 -4 h -4.5 -4.5 v -4.5 -4.5 h 8.5 8.5 v -4 -4 H 326.5 314 V 97.5 93 h 8.5 8.5 V 89 85 H 326.5 322 V 68 51 h 4.5 4.5 v 4 4 h 4 4 v 4.5 4.5 h -4 -4 v 4 4 h 4 4 v 8.5 8.5 h 4 4 v 4.5 4.5 h 4.5 4.5 V 97.5 93 H 351.5 347 V 84.5 76 h -4 -4 v -4 -4 h 4 4 V 63.5 59 h -4 -4 v -4 -4 h -4 -4 V 46.5 42 h 12.5 12.5 v 4.5 4.5 h 4 4 v 4 4 h -4 -4 v 4.5 4.5 h 4 4 V 63.5 59 h 4.5 4.5 V 55 51 H 368.5 364 V 46.5 42 h -4 -4 v -4 -4 h 4 4 V 29.5 25 h -4 -4 v -4 -4 h -4.5 -4.5 v 4 4 h 4.5 4.5 V 29.5 34 H 343.5 331 V 29.5 25 h 4 4 v -4 -4 h -4 -4 v 4 4 H 326.5 322 V 21 17 H 313.5 305 V 29.5 42 h -8.5 -8.5 v 4.5 4.5 h 13 13 v 4 4 H 305.5 297 V 63.5 68 H 292.5 288 V 63.5 59 h -4 -4 v 4.5 4.5 h 4 4 v 4 4 h -4 -4 v 25.5 25.5 h -4.5 -4.5 v 4.5 4.5 h -4 -4 v 4 4 h -4.5 -4.5 v 4 4 h -4 -4 v 4.5 4.5 h 4 4 v 4 4 h 4.5 4.5 v -4 -4 h 4 4 v 8.5 8.5 h -17 -17 v 4 4 h 17 17 v 8.5 8.5 h -4 -4 v -4 -4 h -4.5 -4.5 v 4 4 h -4 -4 v -4 -4 h -4.5 -4.5 v 4 4 h 4.5 4.5 v 4.5 4.5 h -4.5 -4.5 v 8.5 8.5 h -4 -4 v -4.5 -4.5 h -4.5 -4.5 v 4.5 4.5 h 4.5 4.5 v 4 4 h -4.5 -4.5 v 4.5 4.5 h 4.5 4.5 v -4.5 -4.5 h 4 4 v -4 -4 h 4.5 4.5 v 4 4 h 8.5 8.5 v 4.5 4.5 h -13 -13 v 4 4 h -4 -4 v 8.5 8.5 h -4.5 -4.5 v 4.5 4.5 h -4 -4 v 4 4 h -4.5 -4.5 v -4 -4 h -4 -4 v 4 4 h 4 4 v 4 4 h 4.5 4.5 v -4 -4 h 4 4 v 8.5 8.5 h 4.5 4.5 v -8.5 -8.5 h 8.5 8.5 v 4 4 h -4.5 -4.5 v 8.5 8.5 H 224.5 212 v -4 -4 h -4.5 -4.5 v 4 4 h 4.5 4.5 v 4.5 4.5 h 12.5 12.5 v 4 4 h 4.5 4.5 z m -9,-8.5 V 313 h 4.5 4.5 v -4 -4 h 4 4 v -17 -17 h 4.5 4.5 v 17 17 h -4.5 -4.5 v 4 4 h -4 -4 v 4.5 4.5 H 241.5 237 Z M 220,284 v -4 h 4.5 4.5 v -4.5 -4.5 h 4 4 v -8.5 -8.5 h 13 13 v -4 -4 h 12.5 12.5 v 4 4 H 275.5 263 v 4.5 4.5 h -8.5 -8.5 v 8.5 8.5 h -8.5 -8.5 v 4 4 h -4.5 -4.5 z m 51,-51 v -4 H 258.5 246 v -8.5 -8.5 h 4 4 v -4.5 -4.5 h 4.5 4.5 v 4.5 4.5 h -4.5 -4.5 v 4 4 h 8.5 8.5 v -8.5 -8.5 h 8.5 8.5 v 4.5 4.5 h -4 -4 v 4 4 h -4.5 -4.5 v 4.5 4.5 h 8.5 8.5 v 4 4 h -8.5 -8.5 z m 9,-42.5 V 186 h -4.5 -4.5 v -4 -4 h 4.5 4.5 v 4 4 h 8.5 8.5 v -4 -4 h -4.5 -4.5 v -4.5 -4.5 h -4 -4 v -4 -4 h -4.5 -4.5 v -4.5 -4.5 h -4 -4 v 4.5 4.5 h -4.5 -4.5 v -4.5 -4.5 h 4.5 4.5 v -4 -4 h 4 4 v -4 -4 h 4.5 4.5 v -4.5 -4.5 h 4 4 V 101.5 76 h 4.5 4.5 v -4 -4 h 8.5 8.5 V 80.5 93 H 309.5 305 V 84.5 76 h -4 -4 v 25.5 25.5 h 8.5 8.5 v -4 -4 h -4.5 -4.5 v -8.5 -8.5 h 4.5 4.5 v 8.5 8.5 h 4 4 v 4 4 h -4 -4 v 4.5 4.5 h -8.5 -8.5 v 4 4 h 8.5 8.5 v 4 4 h -8.5 -8.5 v 4.5 4.5 h -4.5 -4.5 v 4 4 h 4.5 4.5 v 4.5 4.5 h 4 4 v 4 4 h -4 -4 v 4.5 4.5 h -8.5 -8.5 z m 8,-34 V 152 h 4.5 4.5 v -4 -4 h -4.5 -4.5 v -4 -4 h 4.5 4.5 v -4.5 -4.5 h -4.5 -4.5 v 4.5 4.5 h -4 -4 v 4 4 h -4.5 -4.5 v 4 4 h 4.5 4.5 v 4.5 4.5 h 4 4 z m -8,-8.5 v -4 h 4 4 v 4 4 h -4 -4 z M 314,46.5 V 42 h 4 4 v -4 -4 h -4 -4 V 29.5 25 h 4 4 v 4.5 4.5 h 4.5 4.5 v 4 4 h -4.5 -4.5 v 4.5 4.5 h -4 -4 z m 0,279.5 v -4 h -4.5 -4.5 v 4 4 h 4.5 4.5 z m 67,-8.5 V 313 h -4 -4 v 4.5 4.5 h 4 4 z M 186,309 v -4 h -4 -4 v 4 4 h 4 4 z m 128,0 v -4 h -4.5 -4.5 v 4 4 h 4.5 4.5 z m 84,0 v -4 h 4.5 4.5 v -8.5 -8.5 h 4 4 v -8.5 -8.5 h -4 -4 v 8.5 8.5 h -4.5 -4.5 v -4 -4 h -4 -4 v 4 4 h 4 4 v 8.5 8.5 h -4 -4 v -4.5 -4.5 h -4.5 -4.5 v 4.5 4.5 h 4.5 4.5 v 4 4 h 4 4 z m -76,-17 v -4 h -4 -4 v 4 4 h 4 4 z M 186,275.5 V 271 h -4 -4 v 4.5 4.5 h 4 4 z m 128,0 V 271 h -4.5 -4.5 v 4.5 4.5 h 4.5 4.5 z M 203,267 v -4 h -4 -4 v 4 4 h 4 4 z m 195,0 v -4 h -4 -4 v 4 4 h 4 4 z M 220,258.5 V 254 h -4 -4 v -4 -4 h -4.5 -4.5 v 4 4 h 4.5 4.5 v 4.5 4.5 h 4 4 z m 195,0 V 254 h 4.5 4.5 v -8.5 -8.5 h -4.5 -4.5 v 8.5 8.5 h -4 -4 v -4 -4 h -4.5 -4.5 v 4 4 h 4.5 4.5 v 4.5 4.5 h 4 4 z M 331,250 v -4 h -4.5 -4.5 v 4 4 h 4.5 4.5 z m -17,-8.5 V 237 h -4.5 -4.5 v 4.5 4.5 h 4.5 4.5 z M 203,233 v -4 h -4 -4 v 4 4 h 4 4 z m 204,0 v -4 h -4.5 -4.5 v 4 4 h 4.5 4.5 z m -68,-8.5 V 220 h -4 -4 v 4.5 4.5 h 4 4 z m 85,0 V 220 h 4 4 v -8.5 -8.5 h -4 -4 v 8.5 8.5 h -4.5 -4.5 v -4 -4 h -4 -4 v 4 4 h 4 4 v 4.5 4.5 h 4.5 4.5 z m -195,-17 V 203 h -4.5 -4.5 v 4.5 4.5 h 4.5 4.5 z m 102,0 V 203 h -4.5 -4.5 v 4.5 4.5 h 4.5 4.5 z M 212,199 v -4 h -4.5 -4.5 v 4 4 h 4.5 4.5 z m 203,0 v -4 h -4 -4 v 4 4 h 4 4 z M 229,190.5 V 186 h -4.5 -4.5 v 4.5 4.5 h 4.5 4.5 z m 203,0 V 186 h 4.5 4.5 v -8.5 -8.5 h 4 4 v -8.5 -8.5 h -4 -4 v 8.5 8.5 h -4.5 -4.5 v -4 -4 h -4 -4 v 4 4 h 4 4 v 8.5 8.5 h -4 -4 v -4 -4 h -4.5 -4.5 v 4 4 h 4.5 4.5 v 4.5 4.5 h 4 4 z M 237,165 v -4 h -4 -4 v 4 4 h 4 4 z m -17,-8.5 V 152 h -4 -4 v 4.5 4.5 h 4 4 z m 136,0 V 152 h -4.5 -4.5 v 4.5 4.5 h 4.5 4.5 z M 237,148 v -4 h -4 -4 v 4 4 h 4 4 z m 195,0 v -4 h -4 -4 v 4 4 h 4 4 z m -93,-8 v -4 h -4 -4 v 4 4 h 4 4 z m 110,0 v -4 h 8.5 8.5 v -4.5 -4.5 h -4 -4 v -4 -4 h 4 4 v -4.5 -4.5 h -4 -4 v -4 -4 H 453.5 449 V 97.5 93 h -4 -4 v 4.5 4.5 h 4 4 v 4 4 h 4.5 4.5 v 4.5 4.5 h -4.5 -4.5 v 8.5 8.5 h -4 -4 v -4.5 -4.5 h -4.5 -4.5 v 4.5 4.5 h 4.5 4.5 v 4 4 h 4 4 z M 246,131.5 V 127 h -4.5 -4.5 v 4.5 4.5 h 4.5 4.5 z m 17,-8.5 v -4 h 4 4 v -4.5 -4.5 h -4 -4 v -4 -4 h 4 4 V 97.5 93 h -4 -4 v 4.5 4.5 h -4.5 -4.5 v 4 4 h 4.5 4.5 v 4.5 4.5 h -4.5 -4.5 v 4 4 h 4.5 4.5 z m 84,0 v -4 h -4 -4 v 4 4 h 4 4 z m 17,0 v -4 h -4 -4 v 4 4 h 4 4 z M 237,114.5 V 110 h -4 -4 v 4.5 4.5 h 4 4 z m 204,0 V 110 h -4.5 -4.5 v 4.5 4.5 h 4.5 4.5 z M 381,106 v -4 h -4 -4 v 4 4 h 4 4 z M 254,89 v -4 h -4 -4 v 4 4 h 4 4 z m 212,0 v -4 h 4.5 4.5 V 80.5 76 h -4.5 -4.5 v -4 -4 h 4.5 4.5 V 59.5 51 h -4.5 -4.5 v 8.5 8.5 h -4 -4 V 63.5 59 h -4.5 -4.5 v 4.5 4.5 h 4.5 4.5 v 4 4 h -4.5 -4.5 v 4.5 4.5 h 4.5 4.5 v 4 4 h 4 4 z m -8,-8.5 V 76 h 4 4 v 4.5 4.5 h -4 -4 z m -187,0 V 76 h -4 -4 v 4.5 4.5 h 4 4 z m 102,0 V 76 h -4.5 -4.5 v 4.5 4.5 h 4.5 4.5 z M 246,63.5 V 59 h -4.5 -4.5 v 4.5 4.5 h 4.5 4.5 z m 25,0 V 59 h -4 -4 v 4.5 4.5 h 4 4 z M 390,55 v -4 h -4.5 -4.5 v 4 4 h 4.5 4.5 z M 280,46.5 V 42 h -4.5 -4.5 v 4.5 4.5 h 4.5 4.5 z m 178,0 V 42 h -4.5 -4.5 v 4.5 4.5 h 4.5 4.5 z M 263,38 v -4 h -4.5 -4.5 v 4 4 h 4.5 4.5 z m 212,0 v -4 h -4.5 -4.5 v 4 4 h 4.5 4.5 z M 381,21 v -4 h -4 -4 v 4 4 h 4 4 z m 17,0 v -4 h -4 -4 v 4 4 h 4 4 z m 17,305 v -4 h 4.5 4.5 v 4 4 h -4.5 -4.5 z m 17,-50.5 V 271 h 4.5 4.5 v 4.5 4.5 h -4.5 -4.5 z m 9,-34 V 237 h 4 4 v 4.5 4.5 h -4 -4 z m 8,-34 V 203 h 4.5 4.5 v 4.5 4.5 h -4.5 -4.5 z m 17,-51 V 152 h 4.5 4.5 v 4.5 4.5 H 470.5 466 Z M 492,72 v -4 h 4 4 v 4 4 h -4 -4 z m 8,-25.5 V 42 h 4 4 v 4.5 4.5 h -4 -4 z"
       id="path26" />
    <path
       style="fill:#85d200"
       d="m 678,487 v -4 h -17 -17 v -4.5 -4.5 h -4 -4 v 4.5 4.5 h -4.5 -4.5 v -4.5 -4.5 h -4 -4 v -8.5 -8.5 h -4.5 -4.5 v 8.5 8.5 h -4 -4 v -8.5 -8.5 h 4 4 v -4 -4 h 4.5 4.5 v 4 4 h 4 4 v -4 -4 h 4.5 4.5 v -4.5 -4.5 h -4.5 -4.5 v -4 -4 h -4 -4 v 4 4 h -4.5 -4.5 v -4 -4 h 4.5 4.5 v -8.5 -8.5 h 4 4 v 8.5 8.5 h 4.5 4.5 v -4 -4 h 4 4 v -4.5 -4.5 h -4 -4 V 402.5 390 h -4.5 -4.5 v -4.5 -4.5 h 4.5 4.5 v -4 -4 h -4.5 -4.5 v -4.5 -4.5 h 4.5 4.5 v 4.5 4.5 h 4 4 v 4 4 h 8.5 8.5 v -4 -4 h -4 -4 v -4.5 -4.5 h -4.5 -4.5 v -4 -4 h -4 -4 v -4.5 -4.5 h -4.5 -4.5 v -4 -4 h 4.5 4.5 v -4.5 -4.5 h 4 4 v 4.5 4.5 h -4 -4 v 4 4 h 4 4 v 4.5 4.5 h 4.5 4.5 v -4.5 -4.5 h 16.5 16.5 v -4 -4 H 669.5 653 v -4.5 -4.5 h 8 8 v -4 -4 h -8 -8 v -8.5 -8.5 h 4 4 v -4.5 -4.5 h 4 4 v -4 -4 h -4 -4 v -4 -4 h 4 4 v 4 4 h 4.5 4.5 v -8.5 -8.5 h -4.5 -4.5 v -4 -4 h 4.5 4.5 v 4 4 h 4 4 V 258.5 246 h -4 -4 v 4 4 h -4.5 -4.5 v -4 -4 h -4 -4 v -4.5 -4.5 h 4 4 v -4 -4 h 4.5 4.5 v 4 4 h 4 4 v -4 -4 h 4.5 4.5 v 4 4 h 4 4 v -17 -17 h -4 -4 v -4 -4 h -4.5 -4.5 v 4 4 h -4 -4 v -4 -4 h -4.5 -4.5 v -4.5 -4.5 h 4.5 4.5 v 4.5 4.5 h 4 4 v -4.5 -4.5 h 4.5 4.5 v -4 -4 h -4.5 -4.5 v -4.5 -4.5 h 4.5 4.5 v 4.5 4.5 h 12.5 12.5 v -4.5 -4.5 h 4.5 4.5 v -4 -4 h -4.5 -4.5 v -4.5 -4.5 h 4.5 4.5 v 4.5 4.5 h 25.5 25.5 v 4 4 h 4 4 v -4 -4 h 46.5 46.5 v -4.5 -4.5 h 17 17 v -4 -4 h 13 13 v -4 -4 h 8.5 8.5 v 4 4 h 4 4 v -8.5 -8.5 h 4.5 4.5 v 8.5 8.5 h -4.5 -4.5 v 8.5 8.5 h -4 -4 v 4 4 h 4 4 v 4.5 4.5 h -4 -4 v -4.5 -4.5 h -4.5 -4.5 v 8.5 8.5 h 4.5 4.5 v 4.5 4.5 h -4.5 -4.5 v 4 4 h 4.5 4.5 v 4.5 4.5 h -4.5 -4.5 v -4.5 -4.5 h -4 -4 v 8.5 8.5 h 4 4 v 4.5 4.5 h -4 -4 v 4 4 h 4 4 v 4.5 4.5 h -4 -4 v -4.5 -4.5 h -4.5 -4.5 v 8.5 8.5 h 4.5 4.5 v 8.5 8.5 h -4.5 -4.5 v 4.5 4.5 h -4 -4 v 4 4 h 4 4 v 4 4 h -4 -4 v 4.5 4.5 h 4 4 v 4 4 h -4 -4 v 8.5 8.5 h -4.5 -4.5 v 13 13 h -4 -4 v 12.5 12.5 h -8.5 -8.5 v 8.5 8.5 h 4 4 v -4 -4 h 4.5 4.5 v 4 4 h -4.5 -4.5 v 8.5 8.5 h -8.5 -8.5 v 4.5 4.5 h 4.5 4.5 v 4 4 h -4.5 -4.5 v 4 4 h 4.5 4.5 v 4.5 4.5 h -4.5 -4.5 v 4 4 h -4 -4 v -4 -4 h -8.5 -8.5 v 4 4 h -4.5 -4.5 v 4.5 4.5 h -8 -8 v 4 4 h -13 -13 v 4.5 4.5 h -21 -21 v 4 4 H 720.5 678 Z M 636,465.5 V 457 h 4 4 v 8.5 8.5 h 4.5 4.5 v -4 -4 h 4 4 v -4.5 -4.5 h -8.5 -8.5 v -4 -4 h 8.5 8.5 v -4.5 -4.5 h 4 4 v -4 -4 h 4.5 4.5 v -4 -4 h 4 4 v -4.5 -4.5 h 4.5 4.5 v -4 -4 h -4.5 -4.5 v 4 4 h -4 -4 v 4.5 4.5 h -4.5 -4.5 v 4 4 h -4 -4 v -8.5 -8.5 h 4 4 v -4 -4 h 4.5 4.5 v -4.5 -4.5 h -4.5 -4.5 v -4 -4 h 4.5 4.5 v -4.5 -4.5 h 4 4 v -4 -4 h -8.5 -8.5 v -4.5 -4.5 h 8.5 8.5 v -4 -4 h 4.5 4.5 v 4 4 h 4 4 v -4 -4 h -4 -4 v -4.5 -4.5 h -4.5 -4.5 v 4.5 4.5 h -8.5 -8.5 v 4 4 h -4 -4 v -4 -4 h -4 -4 v 4 4 h 4 4 v 4.5 4.5 h 4 4 v 8.5 8.5 h -4 -4 v 4 4 h -4 -4 v -4 -4 h -4.5 -4.5 v -4.5 -4.5 h -4 -4 v 4.5 4.5 h 4 4 v 12.5 12.5 h 4.5 4.5 v 8.5 8.5 h 4 4 v 4 4 h -8.5 -8.5 v -4 -4 h -4 -4 v 4 4 h 4 4 v 4.5 4.5 h -4 -4 v 4 4 h -4.5 -4.5 v 8.5 8.5 h 4.5 4.5 z M 653,411 v -4 h 4 4 v -4.5 -4.5 h 4 4 v 4.5 4.5 h -4 -4 v 4 4 h -4 -4 z m 25,59 v -4 h -4.5 -4.5 v 4 4 h 4.5 4.5 z m 0,-17 v -4 h 4 4 v -4.5 -4.5 h -4 -4 v 4.5 4.5 h -4.5 -4.5 v 4 4 h 4.5 4.5 z m 203,-8.5 V 440 h -4 -4 v -4 -4 h 4 4 v -4 -4 h -4 -4 v -4.5 -4.5 h -4.5 -4.5 v 4.5 4.5 h 4.5 4.5 v 4 4 h -4.5 -4.5 v 4 4 h 4.5 4.5 v 4.5 4.5 h 4 4 z m 9,-42 V 398 h -8.5 -8.5 v 4.5 4.5 h 8.5 8.5 z M 695,394 v -4 h -4.5 -4.5 v 4 4 h 4.5 4.5 z m 186,-8.5 V 381 h -4 -4 v 4.5 4.5 h 4 4 z M 703,377 v -4 h -4 -4 v 4 4 h 4 4 z m 187,-8.5 V 364 h 4 4 v -4 -4 h 4.5 4.5 v -8.5 -8.5 h -4.5 -4.5 v -4.5 -4.5 h -4 -4 v 4.5 4.5 h 4 4 v 8.5 8.5 h -4 -4 v -4.5 -4.5 h -4.5 -4.5 v 4.5 4.5 h 4.5 4.5 v 4 4 h -4.5 -4.5 v 4.5 4.5 h 4.5 4.5 z M 712,343 v -4 h -4.5 -4.5 v 4 4 h 4.5 4.5 z m -17,-8.5 V 330 h 4 4 v -4 -4 h -4 -4 v -4.5 -4.5 h 4 4 v -4 -4 h -4 -4 v -4.5 -4.5 h 8.5 8.5 v -4 -4 h -8.5 -8.5 v 4 4 h -4.5 -4.5 v -4 -4 h -4 -4 v 4 4 h -4.5 -4.5 v 4.5 4.5 h -4 -4 v 4 4 h 4 4 v 4.5 4.5 h 4.5 4.5 v 4 4 h 4 4 v 4.5 4.5 h 4.5 4.5 z m -9,-8.5 v -4 h -4 -4 v -4.5 -4.5 h -4.5 -4.5 v -4 -4 h 4.5 4.5 v -4.5 -4.5 h 4 4 v 4.5 4.5 h 4.5 4.5 v 4 4 h -4.5 -4.5 v 4.5 4.5 h 4.5 4.5 v 4 4 h -4.5 -4.5 z m 0,-17 v -4 h -4 -4 v 4 4 h 4 4 z m 34,17 v -4 h -4 -4 v 4 4 h 4 4 z m 195,-4.5 V 313 h 4.5 4.5 v -4 -4 h -4.5 -4.5 v 4 4 h -8.5 -8.5 v 4.5 4.5 h 4.5 4.5 v 4 4 h 4 4 z M 720,309 v -4 h -4 -4 v 4 4 h 4 4 z m 187,-8.5 V 296 h -4.5 -4.5 v 4.5 4.5 h 4.5 4.5 z M 729,292 v -4 h -4.5 -4.5 v 4 4 h 4.5 4.5 z m 195,0 v -4 h -4.5 -4.5 v -4 -4 h 4.5 4.5 v -4.5 -4.5 h 4 4 v -8.5 -8.5 h -4 -4 v -4 -4 h -4.5 -4.5 v 4 4 h 4.5 4.5 v 8.5 8.5 h -4.5 -4.5 v -4 -4 h -4 -4 v 4 4 h 4 4 v 4.5 4.5 h -4 -4 v 4 4 h 4 4 v 4 4 h 4.5 4.5 z M 703,275.5 V 271 h 4.5 4.5 v 4.5 4.5 h 4 4 v -4.5 -4.5 h -4 -4 v -4 -4 h 4 4 v -8.5 -8.5 h -4 -4 v -4.5 -4.5 h 4 4 v -8.5 -8.5 h 4.5 4.5 v -4 -4 h 4 4 v -4.5 -4.5 h -4 -4 v -4 -4 h 4 4 v -4.5 -4.5 h -4 -4 v -4 -4 h 8.5 8.5 v -4.5 -4.5 h -8.5 -8.5 v 4.5 4.5 h -4.5 -4.5 v 4 4 H 707.5 695 v 4.5 4.5 h 4 4 v 4 4 h 4.5 4.5 v 4.5 4.5 h 4 4 v 4 4 h -4 -4 v 8.5 8.5 h -4.5 -4.5 v 4.5 4.5 h -4 -4 v -4.5 -4.5 h -4.5 -4.5 v 4.5 4.5 h 4.5 4.5 v 8.5 8.5 h 4 4 v 4 4 h -8.5 -8.5 v 4.5 4.5 h 8.5 8.5 z m 0,-21 V 246 h 4.5 4.5 v 8.5 8.5 h -4.5 -4.5 z m 17,-47 V 203 h -4 -4 v -4 -4 h 4 4 v -4.5 -4.5 h 4.5 4.5 v 4.5 4.5 h -4.5 -4.5 v 4 4 h 4.5 4.5 v 4.5 4.5 h -4.5 -4.5 z m 17,59.5 v -4 h -4 -4 v 4 4 h 4 4 z m 0,-17 v -4 h -4 -4 v 4 4 h 4 4 z m -59,-8.5 V 237 h -4.5 -4.5 v 4.5 4.5 h 4.5 4.5 z m 59,-8.5 v -4 h 4.5 4.5 v -4.5 -4.5 h -4.5 -4.5 v 4.5 4.5 h -4 -4 v 4 4 h 4 4 z m 187,0 v -4 h -4.5 -4.5 v 4 4 h 4.5 4.5 z m 17,-8.5 V 220 h -4.5 -4.5 v -4 -4 h -4 -4 v 4 4 h 4 4 v 4.5 4.5 h 4.5 4.5 z m -187,-17 V 203 h -4 -4 v 4.5 4.5 h 4 4 z M 941,199 v -4 h 4 4 v -4.5 -4.5 h -4 -4 v -4 -4 h -4.5 -4.5 v 4 4 h 4.5 4.5 v 4.5 4.5 h -4.5 -4.5 v 4 4 h 4.5 4.5 z M 754,190.5 V 186 h -4 -4 v 4.5 4.5 h 4 4 z m 9,-17 V 169 h -4.5 -4.5 v 4.5 4.5 h 4.5 4.5 z M 949,165 v -4 h 4.5 4.5 v -8.5 -8.5 h -4.5 -4.5 v 8.5 8.5 h -4 -4 v 4 4 h 4 4 z M 576,453 v -4 h 4.5 4.5 v 4 4 h -4.5 -4.5 z m 43,-50.5 V 398 h 4 4 v 4.5 4.5 h -4 -4 z M 525,394 v -4 h 4.5 4.5 v 4 4 h -4.5 -4.5 z m 9,-25.5 V 364 h 4 4 v 4.5 4.5 h -4 -4 z m 102,-51 V 313 h 4 4 v 4.5 4.5 h -4 -4 z M 551,309 v -4 h 4 4 v 4 4 h -4 -4 z m 85,-8.5 V 296 h 4 4 v 4.5 4.5 h -4 -4 z M 653,267 v -4 h 4 4 v 4 4 h -4 -4 z m 16,-51 v -4 h 4.5 4.5 v 4 4 h -4.5 -4.5 z m 17,0 v -4 h 4.5 4.5 v 4 4 h -4.5 -4.5 z m 17,-51 v -4 h 4.5 4.5 v 4 4 h -4.5 -4.5 z"
       id="path25" />
    <path
       style="fill:#2737c6"
       d="m 339,775 v -4 h -4 -4 v -4.5 -4.5 h -8.5 -8.5 v -4 -4 H 309.5 305 V 749.5 745 H 292.5 280 v -4 -4 h -13 -13 v -4 -4 H 241.5 229 v -4.5 -4.5 h 12.5 12.5 v 4.5 4.5 h 17 17 v -8.5 -8.5 h -8.5 -8.5 v -4.5 -4.5 h 8.5 8.5 v -4 -4 h -4 -4 v -4.5 -4.5 h 4 4 v -4 -4 h -4 -4 v -4.5 -4.5 h 4 4 v 4.5 4.5 h 4.5 4.5 v -8.5 -8.5 h -4.5 -4.5 v -4.5 -4.5 h 4.5 4.5 v -8.5 -8.5 h 12.5 12.5 v -8.5 -8.5 h -4 -4 v 4.5 4.5 h -8.5 -8.5 v -4.5 -4.5 h 8.5 8.5 v -4 -4 h -4.5 -4.5 v -4.5 -4.5 h 4.5 4.5 v -4 -4 h -4.5 -4.5 v -4 -4 h 4.5 4.5 v -4.5 -4.5 h 4 4 v -4 -4 h -4 -4 v -4.5 -4.5 h 4 4 v -8.5 -8.5 h 4.5 4.5 v -4 -4 h -4.5 -4.5 v -4.5 -4.5 h 4.5 4.5 v -4 -4 H 343.5 356 V 512.5 508 H 343.5 331 v -4 -4 H 347.5 364 V 495.5 491 H 351.5 339 v -4 -4 h 17 17 v -4.5 -4.5 h -17 -17 v -4 -4 h 12.5 12.5 v -13 -13 h -8.5 -8.5 v -4 -4 h 8.5 8.5 v -8.5 -8.5 h -4 -4 v -4 -4 h 4 4 V 402.5 398 H 351.5 339 v -4 -4 h 12.5 12.5 v 4 4 h 8.5 8.5 v 8.5 8.5 h 4.5 4.5 v -4 -4 h 8.5 8.5 v 4 4 h 4 4 v 4.5 4.5 h 8.5 8.5 v 4 4 h 8.5 8.5 v 4 4 h 4.5 4.5 v 17 17 h -4.5 -4.5 v 17 17 h -4 -4 v 13 13 h -4.5 -4.5 v 12.5 12.5 h -4 -4 v 17 17 h -4.5 -4.5 v 12.5 12.5 h -4 -4 v 17 17 h -4.5 -4.5 v 13 13 h -4 -4 v 17 17 h -4.5 -4.5 v 12.5 12.5 h -4 -4 v 17 17 h -4.5 -4.5 v 4 4 H 351.5 339 Z m -25,-34 v -4 h -4.5 -4.5 v 4 4 h 4.5 4.5 z m -17,-8 v -4 h -4.5 -4.5 v 4 4 h 4.5 4.5 z m 17,-8.5 V 720 h 4 4 v -4 -4 h -4 -4 v 4 4 h -4.5 -4.5 v -4 -4 h -4 -4 v -4.5 -4.5 h 4 4 v -4 -4 h -4 -4 v -4.5 -4.5 h 8.5 8.5 v -4 -4 h -8.5 -8.5 v 4 4 h -4.5 -4.5 v 4.5 4.5 h 4.5 4.5 v 4 4 h -4.5 -4.5 v 4.5 4.5 h 4.5 4.5 v 4 4 h 4 4 v 4.5 4.5 h 4.5 4.5 z m 8,-25.5 v -4 h -4 -4 v 4 4 h 4 4 z m 17,-8.5 V 686 h -4 -4 v -4 -4 h -4.5 -4.5 v 4 4 h 4.5 4.5 v 4.5 4.5 h 4 4 z M 314,665 v -4 h -4.5 -4.5 v -4.5 -4.5 h 8.5 8.5 v -4 -4 h 4.5 4.5 v -4.5 -4.5 h -4.5 -4.5 v 4.5 4.5 h -8.5 -8.5 v 4 4 h -4 -4 v 4.5 4.5 h 4 4 v 4 4 h 4.5 4.5 z m 17,0 v -4 h 4 4 v -4.5 -4.5 h -4 -4 v 4.5 4.5 h -4.5 -4.5 v 4 4 h 4.5 4.5 z m 16,-25.5 V 635 h -4 -4 v 4.5 4.5 h 4 4 z m 0,-17 V 618 h -4 -4 v 4.5 4.5 h 4 4 z M 331,614 v -4 h 4 4 v -4.5 -4.5 h -4 -4 V 588.5 576 h -4.5 -4.5 v 4.5 4.5 h -4 -4 v 4 4 h 4 4 v 4 4 h -4 -4 v 4.5 4.5 h 4 4 v 4 4 h 4.5 4.5 z m -9,-8.5 V 601 h 4.5 4.5 v 4.5 4.5 h -4.5 -4.5 z m 34,0 V 601 h -4.5 -4.5 v 4.5 4.5 h 4.5 4.5 z M 347,589 v -4 h -4 -4 v 4 4 h 4 4 z m 17,0 v -4 h -4 -4 v 4 4 h 4 4 z m -17,-17 v -4 h -4 -4 v -13 -13 h 4 4 v -8.5 -8.5 h -8 -8 v 4.5 4.5 h 4 4 v 4 4 h -4 -4 v 8.5 8.5 h -4.5 -4.5 v 4.5 4.5 h 8.5 8.5 v 4 4 h 4 4 z m 17,0 v -4 h -4 -4 v 4 4 h 4 4 z m -8,-17 v -4 h -4.5 -4.5 v 4 4 h 4.5 4.5 z m 17,0 v -4 h -4.5 -4.5 v 4 4 h 4.5 4.5 z m -9,-17 v -4 h 4.5 4.5 v -4.5 -4.5 h -4.5 -4.5 v -4 -4 h -4 -4 v 4 4 h 4 4 v 4.5 4.5 h -4 -4 v 4 4 h 4 4 z m 26,-25.5 V 508 h -4.5 -4.5 v 4.5 4.5 h 4.5 4.5 z M 373,504 v -4 h -4.5 -4.5 v 4 4 h 4.5 4.5 z m 17,-8.5 V 491 h -4.5 -4.5 v -4 -4 h -4 -4 v 4 4 h 4 4 v 4.5 4.5 h 4.5 4.5 z m 0,-25.5 v -4 h 4 4 v -4.5 -4.5 h -4 -4 v 4.5 4.5 h -4.5 -4.5 v -4.5 -4.5 h -4 -4 v 4.5 4.5 h 4 4 v 4 4 h 4.5 4.5 z m -9,-25.5 V 440 h -4 -4 v -4 -4 h 4 4 v -8.5 -8.5 h -4 -4 v -4 -4 h -4.5 -4.5 v 4 4 h 4.5 4.5 v 8.5 8.5 h -4.5 -4.5 v 4 4 h 4.5 4.5 v 4.5 4.5 h 4 4 z m 17,0 V 440 h 4.5 4.5 v -4 -4 h -4.5 -4.5 v -4 -4 h -4 -4 v 4 4 h 4 4 v 4 4 h -4 -4 v 4.5 4.5 h 4 4 z M 0,749.5 V 737 H 4 8 V 720 703 H 12.5 17 V 690.5 678 h 4 4 v -17 -17 h 4.5 4.5 v -13 -13 h 4 4 V 601.5 585 h 4.5 4.5 v -13 -13 h 4 4 V 546.5 534 h 4.5 4.5 v -17 -17 h 4 4 v -13 -13 h 4.5 4.5 v -17 -17 h 4 4 v -8 -8 h 4.5 4.5 v 12.5 12.5 h 4 4 v 4 4 h -4 -4 v 4.5 4.5 H 97.5 93 v 4 4 h 4.5 4.5 v 4.5 4.5 H 97.5 93 v 4 4 h -4 -4 v 8.5 8.5 h 4 4 v 4.5 4.5 H 89 85 V 512.5 508 H 80.5 76 v 8.5 8.5 h 4.5 4.5 v 4.5 4.5 H 76.5 68 v 8.5 8.5 h 4 4 v -4.5 -4.5 h 4.5 4.5 v 4.5 4.5 H 80.5 76 v 4 4 H 67.5 59 v 4.5 4.5 h 4.5 4.5 v 4 4 h 4 4 v 4.5 4.5 h -4 -4 v 4 4 H 63.5 59 v 4 4 h -4 -4 v 8.5 8.5 h 4 4 v -4 -4 h 4.5 4.5 v 4 4 H 63.5 59 v 4.5 4.5 h -4 -4 v 4 4 H 46.5 42 v 8.5 8.5 h 4.5 4.5 v -4 -4 h 4 4 v 4 4 h -4 -4 v 4.5 4.5 H 46.5 42 v -4.5 -4.5 h -4 -4 v 17 17 H 29.5 25 v 4.5 4.5 h 8.5 8.5 v 4 4 H 33.5 25 v 8.5 8.5 h -4 -4 v 8.5 8.5 H 12.5 8 v 8.5 8.5 H 12.5 17 V 749.5 745 H 29.5 42 v -4 -4 h 17 17 v -4 -4 h 13 13 v -4.5 -4.5 h 29.5 29.5 v 4.5 4.5 h -21 -21 v 4 4 H 102 85 v 4 4 H 72 59 v 4.5 4.5 H 46.5 34 v 4 4 H 17 0 Z m 51,-127 V 618 H 46.5 42 v 4.5 4.5 H 46.5 51 Z M 59,589 v -4 H 63.5 68 V 580.5 576 H 63.5 59 v 4.5 4.5 h -4 -4 v 4 4 h 4 4 z M 93,478.5 V 474 h -4 -4 v 4.5 4.5 h 4 4 z m 9,-25.5 v -4 H 97.5 93 v 4 4 h 4.5 4.5 z m 67,271.5 V 720 h 4.5 4.5 v -4 -4 h 17 17 v 4 4 h 4 4 v 4.5 4.5 h -4 -4 v -4.5 -4.5 h -4.5 -4.5 v 4.5 4.5 h -4 -4 v -4.5 -4.5 h -8.5 -8.5 v 4.5 4.5 H 173.5 169 Z M 42,673.5 V 669 h 4.5 4.5 v 4.5 4.5 H 46.5 42 Z M 347,453 v -4 h 4.5 4.5 v 4 4 H 351.5 347 Z M 110,436 v -4 h 4.5 4.5 v 4 4 h -4.5 -4.5 z m 0,-16.5 V 415 h 4.5 4.5 v 4.5 4.5 h -4.5 -4.5 z m 26,-8.5 v -4 h 4 4 v 4 4 h -4 -4 z m 25,-8.5 V 398 h 4 4 v 4.5 4.5 h -4 -4 z m 68,-17 V 381 h 4 4 v 4.5 4.5 h -4 -4 z m 17,0 V 381 h 8.5 8.5 v 4.5 4.5 h -8.5 -8.5 z m 51,0 V 381 h 8.5 8.5 v 4.5 4.5 h -8.5 -8.5 z"
       id="path24" />
    <path
       style="fill:#818900"
       d="m 593,877 v -4 h 4.5 4.5 v 4 4 h -4.5 -4.5 z m 17,0 v -4 h 8.5 8.5 v 4 4 h -8.5 -8.5 z m -85,-8.5 V 864 h 13 13 v 4.5 4.5 h -13 -13 z m 34,0 V 864 h 4.5 4.5 v 4.5 4.5 h -4.5 -4.5 z m 110,0 V 864 h 8.5 8.5 v 4.5 4.5 H 677.5 669 Z M 500,860 v -4 h 8.5 8.5 v 4 4 h -8.5 -8.5 z m 195,0 v -4 h 8.5 8.5 v 4 4 h -8.5 -8.5 z m 25,-4.5 V 847 h 8.5 8.5 v 4.5 4.5 h -4 -4 v 4 4 h -4.5 -4.5 z m -237,-4 V 847 h 4.5 4.5 v -4 -4 h 4 4 v -8.5 -8.5 h -4 -4 v 4 4 h -4.5 -4.5 v 4.5 4.5 h -8.5 -8.5 v 4 4 h -4 -4 v -8.5 -8.5 h 12.5 12.5 v -4 -4 h -8.5 -8.5 v -4.5 -4.5 h -4 -4 v 4.5 4.5 h -4.5 -4.5 v -4.5 -4.5 h -4 -4 v 4.5 4.5 h -4.5 -4.5 v 4 4 h -4 -4 v -4 -4 h -4.5 -4.5 v -4.5 -4.5 h 4.5 4.5 v -4 -4 h -4.5 -4.5 v -4.5 -4.5 h -4 -4 v -8.5 -8.5 h 4 4 v 8.5 8.5 h 4.5 4.5 v -8.5 -8.5 h 4 4 v 8.5 8.5 h 4.5 4.5 v -17 -17 h -4.5 -4.5 v -4 -4 h 4.5 4.5 v -4.5 -4.5 h -4.5 -4.5 v -8 -8 h 4.5 4.5 v 8 8 h 4 4 v -8 -8 h 4.5 4.5 v -4.5 -4.5 h -13 -13 v -8.5 -8.5 h 4.5 4.5 v -4 -4 h 4 4 v 4 4 h -4 -4 v 4.5 4.5 h 12.5 12.5 v -4.5 -4.5 h -4 -4 v -4 -4 h 4 4 v -8.5 -8.5 h 4.5 4.5 v -4.5 -4.5 h -4.5 -4.5 v -4 -4 h -4 -4 v 4 4 h -4.5 -4.5 v 4.5 4.5 h 4.5 4.5 v 4 4 h -8.5 -8.5 v -8.5 -8.5 h 4 4 v -4 -4 h 4.5 4.5 v -4.5 -4.5 h -4.5 -4.5 v -4 -4 h 4.5 4.5 v -4.5 -4.5 h 4 4 v 4.5 4.5 h 4.5 4.5 v -4.5 -4.5 h 8.5 8.5 v -4 -4 h -17 -17 v -8.5 -8.5 h 4 4 v 4 4 h 13 13 v -4 -4 h -4.5 -4.5 v -4.5 -4.5 h -4 -4 v -4 -4 h -4.5 -4.5 v -8.5 -8.5 h 4.5 4.5 v -4 -4 h 4 4 v 4 4 h -4 -4 v 4.5 4.5 h 4 4 v 8 8 h 4.5 4.5 v -4 -4 h 4 4 v -4 -4 h -4 -4 v -17 -17 h -4.5 -4.5 v 4 4 h -4 -4 v -4 -4 h 4 4 v -8.5 -8.5 h 4.5 4.5 v -4.5 -4.5 h -4.5 -4.5 v -4 -4 h 4.5 4.5 v 4 4 h 8 8 v 4.5 4.5 h 4.5 4.5 v -8.5 -8.5 h -4.5 -4.5 v -8.5 -8.5 h -4 -4 v 4 4 h -4 -4 v -8.5 -8.5 h 8 8 v -4 -4 h 4.5 4.5 v 4 4 h -4.5 -4.5 v 4.5 4.5 h 8.5 8.5 v -4.5 -4.5 h 4.5 4.5 v 13 13 h 4 4 v -4.5 -4.5 h 8.5 8.5 v 4.5 4.5 h 4.5 4.5 v 8.5 8.5 h -13 -13 v 4 4 h 17 17 v 4.5 4.5 h -4 -4 v 4 4 h 4 4 v 4.5 4.5 h 4.5 4.5 v 4 4 h 4 4 v 4.5 4.5 h -4 -4 v -4.5 -4.5 h -4.5 -4.5 v 4.5 4.5 h -4 -4 v -4.5 -4.5 h -4.5 -4.5 v 4.5 4.5 h -4 -4 v 8 8 h 4 4 v -4 -4 h 4.5 4.5 v 4 4 h 4 4 v 8.5 8.5 h -4 -4 v 4.5 4.5 h -4.5 -4.5 v -4.5 -4.5 h -4 -4 v -8.5 -8.5 h -4.5 -4.5 v -8 -8 h -8.5 -8.5 v 4 4 h 4.5 4.5 v 12.5 12.5 h 4 4 v 4.5 4.5 h -4 -4 v 4 4 h 4 4 v 4.5 4.5 h 4.5 4.5 v -4.5 -4.5 h 4 4 v 4.5 4.5 h 4.5 4.5 v 4 4 h -4.5 -4.5 v 4.5 4.5 h -4 -4 v -4.5 -4.5 h -4.5 -4.5 v -4 -4 h -4 -4 v 8.5 8.5 h 4 4 v 8.5 8.5 h -4 -4 v 4 4 h -8.5 -8.5 v -4 -4 h -4.5 -4.5 v 4 4 h -4 -4 v 4.5 4.5 h 4 4 v 4 4 h -4 -4 v 8.5 8.5 h 4 4 v 4.5 4.5 h 8.5 8.5 v 4 4 h -8.5 -8.5 v 8.5 8.5 h 4.5 4.5 v -4.5 -4.5 h 12.5 12.5 v 4.5 4.5 h 4.5 4.5 v 4 4 h -4.5 -4.5 v -4 -4 H 529.5 517 v 4 4 h 4 4 v 4.5 4.5 h -4 -4 v -4.5 -4.5 h -4.5 -4.5 v -4 -4 h -4 -4 v 8.5 8.5 h 4 4 v 4 4 h 8.5 8.5 v 4.5 4.5 h -8.5 -8.5 v -4.5 -4.5 h -4 -4 v 4.5 4.5 h -4 -4 v 4 4 h 4 4 v 4.5 4.5 h 4 4 v 4 4 h -4 -4 v 4.5 4.5 h 4 4 v 8.5 8.5 h -4 -4 v 4 4 h -4 -4 v 4.5 4.5 h -4.5 -4.5 z m -51,-34 V 813 h -4 -4 v 4.5 4.5 h 4 4 z m 60,0 V 813 h 4 4 v -4 -4 h -4 -4 v -4.5 -4.5 h -8.5 -8.5 v -4 -4 h 8.5 8.5 v -4.5 -4.5 h 4 4 v -4 -4 h -4 -4 v 4 4 h -8.5 -8.5 v -4 -4 h 4 4 v -4.5 -4.5 h 4.5 4.5 v -4 -4 h 4 4 v -4.5 -4.5 h -4 -4 v -8 -8 h 4 4 v 4 4 h 4 4 v -4 -4 h -4 -4 v -4.5 -4.5 h -4 -4 v -8.5 -8.5 h 4 4 v -4 -4 h -4 -4 v 4 4 h -4.5 -4.5 v 8.5 8.5 h 4.5 4.5 v 4.5 4.5 h -4.5 -4.5 v 8 8 h -4 -4 v -4 -4 h -4.5 -4.5 v -4 -4 h 4.5 4.5 v -8.5 -8.5 h -4.5 -4.5 v 8.5 8.5 h -4 -4 v 4 4 h 4 4 v 4 4 h -8.5 -8.5 v 4.5 4.5 h -4 -4 v 4 4 h 4 4 v 13 13 h 4.5 4.5 v -13 -13 h -4.5 -4.5 v -4 -4 h 8.5 8.5 v 4 4 h 4.5 4.5 v 4.5 4.5 H 470.5 466 V 783.5 796 H 453.5 441 v 4.5 4.5 h 12.5 12.5 v 4 4 h 4.5 4.5 v -4 -4 h 8.5 8.5 v 4 4 h -4.5 -4.5 v 4.5 4.5 h 4.5 4.5 z m -26,-17 V 796 h 4.5 4.5 v 4.5 4.5 h -4.5 -4.5 z m 9,-42.5 v -4 h 4 4 v -4.5 -4.5 h 4.5 4.5 v 4.5 4.5 h -4.5 -4.5 v 4 4 h -4 -4 z m -43,42.5 V 796 h -4 -4 v 4.5 4.5 h 4 4 z M 475,699 v -4 h 4 4 v -8.5 -8.5 h -4 -4 v 8.5 8.5 h -4.5 -4.5 v 4 4 h 4.5 4.5 z m 25,-21.5 V 669 h 4 4 V 656.5 644 h 4.5 4.5 v 8.5 8.5 h 4 4 v 4 4 h -4 -4 v 4.5 4.5 h 8.5 8.5 v -8.5 -8.5 h -4.5 -4.5 v -8.5 -8.5 h 4.5 4.5 v -4.5 -4.5 h -4.5 -4.5 v 4.5 4.5 h -4 -4 v -4.5 -4.5 h -4.5 -4.5 v -4 -4 h -4 -4 v -4.5 -4.5 h 8.5 8.5 v 4.5 4.5 h 8.5 8.5 v -4.5 -4.5 h -8.5 -8.5 v -4 -4 h 4 4 v -8.5 -8.5 h -4 -4 v 8.5 8.5 h -8.5 -8.5 v -4.5 -4.5 h 4 4 v -4 -4 h -4 -4 v 4 4 h -4 -4 v 4.5 4.5 h 4 4 v 4 4 h -4 -4 v 4.5 4.5 h 4 4 v 4 4 h 4 4 v 4.5 4.5 h -8 -8 v 4 4 h -4.5 -4.5 v -4 -4 h -4 -4 v 4 4 h -4.5 -4.5 v -4 -4 h -4 -4 v 4 4 h 4 4 v 4.5 4.5 h 4.5 4.5 v 4 4 h 4 4 v -4 -4 h 4.5 4.5 v -4.5 -4.5 h 4 4 v 8.5 8.5 h -4 -4 v 8.5 8.5 h 4 4 z m -25,-21 V 652 h 4 4 v 4.5 4.5 h -4 -4 z m 84,-8.5 v -4 h -4 -4 v 4 4 h 4 4 z m 9,-38.5 V 601 h -4.5 -4.5 v 8.5 8.5 h 4.5 4.5 z m -60,-33 V 568 h 8.5 8.5 v 4 4 h -4 -4 v 4.5 4.5 h 4 4 v -4.5 -4.5 h 4.5 4.5 v -4 -4 h 4 4 v 8.5 8.5 h 4.5 4.5 v -4.5 -4.5 h 4 4 v -4 -4 h 4.5 4.5 v 4 4 h 4 4 v -4 -4 h -4 -4 v -4.5 -4.5 h -4.5 -4.5 v -4 -4 h -8.5 -8.5 v -4.5 -4.5 h -4 -4 v -4 -4 h -4.5 -4.5 v 4 4 h -4 -4 v 4.5 4.5 h 4 4 v 4 4 H 516.5 508 V 546.5 534 h -8 -8 v 8.5 8.5 h 4 4 v 4 4 h 4 4 v 4.5 4.5 h -4 -4 v 8.5 8.5 h 4 4 z m 17,-13 V 559 h 4.5 4.5 v 4.5 4.5 h -4.5 -4.5 z m 17,0 V 559 h 8.5 8.5 v 4.5 4.5 h -8.5 -8.5 z m -17,-17 V 542 h 4.5 4.5 v 4.5 4.5 h -4.5 -4.5 z m 9,-25.5 v -4 h -4.5 -4.5 v -4.5 -4.5 h -4 -4 v 4.5 4.5 h 4 4 v 4 4 h 4.5 4.5 z m 25,0 v -4 h -8.5 -8.5 v 4 4 h 8.5 8.5 z m -42,322 v -4 h 4 4 v -4.5 -4.5 h -4 -4 v -4 -4 h 4 4 v -4.5 -4.5 h 4.5 4.5 v 4.5 4.5 h -4.5 -4.5 v 4 4 h 4.5 4.5 v 4.5 4.5 h -4.5 -4.5 v 4 4 h -4 -4 z m 25,0 v -4 h 4.5 4.5 v 4 4 h -4.5 -4.5 z m 204,0 v -4 h 8.5 8.5 v 4 4 H 754.5 746 Z M 441,834.5 V 830 h 4 4 v 4.5 4.5 h -4 -4 z m 330,0 V 830 h 4.5 4.5 v -4 -4 h 4 4 v 4 4 h -4 -4 v 4.5 4.5 H 775.5 771 Z M 542,809 v -4 h 4.5 4.5 v 4 4 h -4.5 -4.5 z m 246,0 v -4 h 4.5 4.5 v 4 4 H 792.5 788 Z M 517,800.5 V 796 h 8.5 8.5 v 4.5 4.5 h -8.5 -8.5 z m 42,0 V 796 h 4.5 4.5 v 4.5 4.5 H 563.5 559 Z M 542,792 v -4 h 4.5 4.5 v 4 4 h -4.5 -4.5 z m 246,0 v -4 h 4.5 4.5 v 4 4 H 792.5 788 Z M 534,775 v -4 h 4 4 v 4 4 h -4 -4 z M 415,762.5 V 754 h 4.5 4.5 v 8.5 8.5 h -4.5 -4.5 z m 144,4 V 762 h 4.5 4.5 v 4.5 4.5 h -4.5 -4.5 z m 238,0 V 762 h 4 4 v 4.5 4.5 h -4 -4 z M 576,758 v -4 h 4.5 4.5 v 4 4 h -4.5 -4.5 z m -8,-17 v -4 h 4 4 v 4 4 h -4 -4 z m 237,-4 v -8 h 4.5 4.5 v 8 8 h -4.5 -4.5 z m -271,-4 v -4 h 4 4 v -4.5 -4.5 h 4.5 4.5 v 4.5 4.5 h 4 4 v 4 4 h -4 -4 v -4 -4 h -4.5 -4.5 v 4 4 h -4 -4 z m 34,-8.5 V 720 h 4 4 v 4.5 4.5 h -4 -4 z M 517,716 v -4 h 8.5 8.5 v 4 4 h -8.5 -8.5 z m 68,0 v -4 h 4 4 v 4 4 h -4 -4 z m -43,-8.5 V 703 H 529.5 517 v -4 -4 h 12.5 12.5 v 4 4 h 4.5 4.5 v -4 -4 h 4 4 v 4 4 h -4 -4 v 4.5 4.5 h -4.5 -4.5 z m 26,0 V 703 h 4 4 v 4.5 4.5 h -4 -4 z m 246,0 V 703 h 4 4 v 4.5 4.5 h -4 -4 z m -246,-17 V 686 h 4 4 v 4.5 4.5 h -4 -4 z m 254,0 V 686 h 4.5 4.5 v 4.5 4.5 h -4.5 -4.5 z m -271,-13 V 669 h 4 4 v 8.5 8.5 h -4 -4 z m 34,4.5 v -4 h 4 4 v 4 4 h -4 -4 z m -17,-8.5 V 669 h 4 4 v -4 -4 h 4.5 4.5 v 4 4 h -4.5 -4.5 v 4.5 4.5 h -4 -4 z m 254,0 V 669 h 4.5 4.5 v 4.5 4.5 H 826.5 822 Z M 602,665 v -4 h 4 4 v 4 4 h -4 -4 z m 229,-17 v -4 h 4 4 v 4 4 h -4 -4 z M 576,639.5 V 635 h 4.5 4.5 v -4 -4 h 4 4 v 4 4 h -4 -4 v 4.5 4.5 h -4.5 -4.5 z m 26,0 V 635 h 4 4 v 4.5 4.5 h -4 -4 z M 839,631 v -4 h 4 4 v 4 4 h -4 -4 z M 585,614 v -4 h 4 4 v 4 4 h -4 -4 z m 254,0 v -4 h 4 4 v 4 4 h -4 -4 z M 602,605.5 V 601 h 4 4 v 4.5 4.5 h -4 -4 z M 585,597 v -4 h 4 4 v 4 4 h -4 -4 z m 34,0 v -4 h 4 4 v 4 4 h -4 -4 z M 847,584.5 V 576 h 4.5 4.5 v 4.5 4.5 h 4 4 v 4 4 h -8.5 -8.5 z m -245,-4 V 576 h 4 4 v 4.5 4.5 h -4 -4 z m 17,-8.5 v -4 h 4 4 v 4 4 h -4 -4 z m -17,-8.5 V 559 h -4.5 -4.5 v -4 -4 h -4 -4 v -4.5 -4.5 h 4 4 v 4.5 4.5 h 4.5 4.5 v -4.5 -4.5 h 4 4 v 4.5 4.5 h -4 -4 v 4 4 h 4 4 v 4.5 4.5 h -4 -4 z M 856,555 v -4 h 4 4 v 4 4 h -4 -4 z M 619,538 v -4 h 8.5 8.5 v 4 4 h -8.5 -8.5 z m 144,0 v -4 h 4 4 v 4 4 h -4 -4 z M 576,529.5 V 525 h 4.5 4.5 v 4.5 4.5 h -4.5 -4.5 z m 17,0 V 525 h 4.5 4.5 v 4.5 4.5 h -4.5 -4.5 z m 204,0 V 525 h 4 4 v 4.5 4.5 h -4 -4 z m 25,-8.5 v -4 h 4.5 4.5 v 4 4 h -4.5 -4.5 z m 51,-17 v -4 h 4 4 v 4 4 h -4 -4 z M 585,461.5 V 457 h 4 4 v -8.5 -8.5 h -4 -4 v -4 -4 h 4 4 v -4 -4 h -4 -4 v -4.5 -4.5 h 4 4 v 4.5 4.5 h 4.5 4.5 v -8.5 -8.5 h -4.5 -4.5 v -8.5 -8.5 h 4.5 4.5 v -4.5 -4.5 h 8.5 8.5 v -4 -4 h -4.5 -4.5 v -4.5 -4.5 h 4.5 4.5 v -8.5 -8.5 h -4.5 -4.5 v -4 -4 h -4 -4 v -8.5 -8.5 h 4 4 v 8.5 8.5 h 4.5 4.5 v 4 4 h 4 4 v 8.5 8.5 h -4 -4 v 4.5 4.5 h 4 4 v 4 4 h -4 -4 v 4.5 4.5 h -8.5 -8.5 v 8.5 8.5 h 4 4 v -4.5 -4.5 h 4.5 4.5 v 4.5 4.5 h -4.5 -4.5 v 4 4 h 4.5 4.5 v 4.5 4.5 h -8.5 -8.5 v 4 4 h -4.5 -4.5 v 4 4 h 8.5 8.5 v 4.5 4.5 h -4 -4 v 4 4 h -4.5 -4.5 v 4.5 4.5 h -4 -4 z M 559,453 v -4 h 4.5 4.5 v 4 4 h -4.5 -4.5 z m 68,-8.5 V 440 h 4.5 4.5 v 4.5 4.5 H 631.5 627 Z M 568,436 v -4 h 4 4 v 4 4 h -4 -4 z m -51,-8 v -4 h 4 4 v 4 4 h -4 -4 z m 119,-8.5 V 415 h 4 4 v 4.5 4.5 h -4 -4 z m -119,-13 V 398 h 4 4 v 8.5 8.5 h -4 -4 z M 576,394 v -4 h 4.5 4.5 v 4 4 h -4.5 -4.5 z m -51,-8.5 V 381 h 4.5 4.5 v 4.5 4.5 h -4.5 -4.5 z m 68,-21 V 356 h 4.5 4.5 v 8.5 8.5 h -4.5 -4.5 z m 43,4 V 364 h 4 4 v 4.5 4.5 h -4 -4 z m -102,-17 V 347 h 8.5 8.5 v 4.5 4.5 H 542.5 534 Z M 653,343 v -4 h 4 4 v 4 4 h -4 -4 z M 542,334.5 V 330 h 4.5 4.5 v 4.5 4.5 h -4.5 -4.5 z m 77,-17 V 305 h 4 4 v 12.5 12.5 h -4 -4 z m -68,-17 V 296 h 4 4 v 4.5 4.5 h -4 -4 z m 93,-8 V 280 h -4 -4 v -4.5 -4.5 h -4.5 -4.5 v -4 -4 h 4.5 4.5 v -4.5 -4.5 h -4.5 -4.5 v -4 -4 h 4.5 4.5 v 4 4 h 4 4 V 241.5 229 h 4.5 4.5 v -4.5 -4.5 h 4 4 v -8.5 -8.5 h -4 -4 v 4.5 4.5 h -4.5 -4.5 v -4.5 -4.5 h -4 -4 v -4 -4 h 4 4 v 4 4 h 4.5 4.5 v -4 -4 h 4 4 v -4.5 -4.5 h -4 -4 v -4 -4 h 4 4 v 4 4 h 4 4 v 4.5 4.5 h -4 -4 v 4 4 h 4 4 v 8.5 8.5 h -4 -4 v 4.5 4.5 h -4 -4 v 8.5 8.5 h 4 4 v 4 4 h 4 4 v 4.5 4.5 h -4 -4 v -4.5 -4.5 h -8.5 -8.5 v 4.5 4.5 h -4 -4 v 4 4 h 8.5 8.5 v 4.5 4.5 h 4 4 v -4.5 -4.5 h 4 4 v 4.5 4.5 h -4 -4 v 4 4 h -4 -4 v 8.5 8.5 H 648.5 644 Z M 619,292 v -4 h -4.5 -4.5 v -4 -4 h 4.5 4.5 v 4 4 h 8.5 8.5 v 4 4 h -8.5 -8.5 z m -60,-8 v -4 h 4.5 4.5 v 4 4 h -4.5 -4.5 z m 0,-17 v -4 h 4.5 4.5 v 4 4 h -4.5 -4.5 z m 9,-25.5 V 237 h 4 4 v 4.5 4.5 h -4 -4 z m 8,-17 V 220 h 4.5 4.5 v 4.5 4.5 h -4.5 -4.5 z m 51,0 V 220 h 4.5 4.5 v 4.5 4.5 h -4.5 -4.5 z m 59,0 V 220 h -4 -4 v -4 -4 h 4 4 v 4 4 h 4.5 4.5 v 4.5 4.5 h -4.5 -4.5 z m -110,-17 V 203 h 4.5 4.5 v 4.5 4.5 H 580.5 576 Z M 703,199 v -4 h 4.5 4.5 v 4 4 h -4.5 -4.5 z m 255,-8.5 V 186 h 4 4 v 4.5 4.5 h -4 -4 z M 585,182 v -4 h 4 4 v 4 4 h -4 -4 z m 101,0 v -4 h 4.5 4.5 v 4 4 h -4.5 -4.5 z m -17,-8.5 V 169 h -4 -4 v -8.5 -8.5 h 4 4 v -4 -4 h 8.5 8.5 v 4 4 h 4.5 4.5 v -4 -4 h 8.5 8.5 v 8.5 8.5 h 4 4 v 8.5 8.5 h -4 -4 v -8.5 -8.5 h -4.5 -4.5 v 4 4 h -4 -4 v -4 -4 h -4.5 -4.5 v 4 4 h -4 -4 v 4.5 4.5 h -4.5 -4.5 z m 9,-13 V 152 h -4.5 -4.5 v 8.5 8.5 h 4.5 4.5 z m 25,-4 V 152 h -4 -4 v 4.5 4.5 h 4 4 z M 593,165 v -4 h 4.5 4.5 v 4 4 h -4.5 -4.5 z m 51,0 v -4 h 4.5 4.5 v 4 4 h -4.5 -4.5 z m 85,-8.5 V 152 h 4 4 v 4.5 4.5 h -4 -4 z M 593,148 v -4 h 4.5 4.5 v 4 4 h -4.5 -4.5 z m 314,0 v -4 h 4 4 v 4 4 h -4 -4 z m 25,-8 v -4 h 4.5 4.5 v 4 4 h -4.5 -4.5 z m 26,0 v -4 h 4 4 v 4 4 h -4 -4 z M 661,131.5 V 127 h 4 4 v 4.5 4.5 h -4 -4 z M 602,123 v -4 h 4 4 v 4 4 h -4 -4 z m 8,-17 v -4 h 4.5 4.5 v 4 4 h -4.5 -4.5 z"
       id="path23" />
    <path
       style="fill:#a92f03"
       d="m 602,877 v -4 h 4 4 v 4 4 h -4 -4 z m 59,-8.5 V 864 h 4 4 v 4.5 4.5 h -4 -4 z M 525,860 v -4 h 4.5 4.5 v 4 4 h -4.5 -4.5 z m 187,0 v -4 h 4 4 v 4 4 h -4 -4 z M 500,851.5 V 847 h 4 4 v 4.5 4.5 h -4 -4 z m 237,0 V 847 h 4.5 4.5 v 4.5 4.5 h -4.5 -4.5 z m -288,-17 V 830 h 4.5 4.5 v 4.5 4.5 h -4.5 -4.5 z m 34,0 V 830 h 4.5 4.5 v 4.5 4.5 h -4.5 -4.5 z m 297,0 V 830 h 4 4 v 4.5 4.5 h -4 -4 z M 432,826 v -4 h -4 -4 v -4.5 -4.5 h -4.5 -4.5 v -4 -4 h -4 -4 v -4.5 -4.5 h 4 4 v 4.5 4.5 h 4.5 4.5 v -4.5 -4.5 h 4 4 v -4 -4 h 4.5 4.5 v 4 4 h 8.5 8.5 v 4.5 4.5 h -8.5 -8.5 v -4.5 -4.5 h -4.5 -4.5 v 4.5 4.5 h -4 -4 v 4 4 h 4 4 v 4.5 4.5 h 4.5 4.5 v -4.5 -4.5 h 4 4 v 4.5 4.5 h -4 -4 v 4 4 h -4.5 -4.5 z m 34,0 v -4 h -4 -4 v -4.5 -4.5 h 4 4 v -4 -4 h 4.5 4.5 v 4 4 h -4.5 -4.5 v 4.5 4.5 h 4.5 4.5 v 4 4 h -4.5 -4.5 z m 76,0 v -4 h 4.5 4.5 v 4 4 h -4.5 -4.5 z m -34,-8.5 V 813 h 4.5 4.5 v 4.5 4.5 H 512.5 508 Z M 797,809 v -4 h -4.5 -4.5 v -4.5 -4.5 h 4.5 4.5 v 4.5 4.5 h 4 4 v 4 4 h -4 -4 z M 483,800.5 V 796 h 4.5 4.5 v 4.5 4.5 h -4.5 -4.5 z m 25,0 V 796 h -4 -4 v -4 -4 h 4 4 v 4 4 h 4.5 4.5 v 4.5 4.5 h -4.5 -4.5 z m -93,-17 V 779 h 4.5 4.5 v 4.5 4.5 h -4.5 -4.5 z m 34,-8.5 v -13 h -4 -4 v -4 -4 h 4 4 v 4 4 h 4.5 4.5 v 13 13 h -4.5 -4.5 z m 17,8.5 V 779 h 4.5 4.5 v 4.5 4.5 h -4.5 -4.5 z m 17,0 V 779 h 4.5 4.5 v 4.5 4.5 h -4.5 -4.5 z m 42,0 V 779 h 4.5 4.5 v 4.5 4.5 H 529.5 525 Z M 432,775 v -4 h 4.5 4.5 v 4 4 h -4.5 -4.5 z m 119,0 v -4 h 4 4 v 4 4 h -4 -4 z m 246,0 v -4 h 4 4 v 4 4 h -4 -4 z M 475,766.5 V 762 h -4.5 -4.5 v -4 -4 h -4 -4 v -4.5 -4.5 h 4 4 v -4 -4 h -4 -4 v -4 -4 h -4.5 -4.5 v 8 8 h -4 -4 v -8 -8 h 4 4 v -4.5 -4.5 h 4.5 4.5 v 4.5 4.5 h 4 4 v -8.5 -8.5 h -4 -4 v -4.5 -4.5 h -4.5 -4.5 v -4 -4 h 4.5 4.5 v -4.5 -4.5 h 4 4 v 4.5 4.5 h 4.5 4.5 v -8.5 -8.5 h -8.5 -8.5 v -4.5 -4.5 h 8.5 8.5 v -4 -4 h 4 4 v -4.5 -4.5 h -4 -4 v -4 -4 h -4.5 -4.5 v 4 4 h -4 -4 v -4 -4 h -4.5 -4.5 v -4.5 -4.5 h 4.5 4.5 v 4.5 4.5 h 4 4 v -4.5 -4.5 h 4.5 4.5 v -4 -4 h 8.5 8.5 v -4.5 -4.5 h -4.5 -4.5 v -4 -4 h 4.5 4.5 v -4.5 -4.5 h 4 4 v -4 -4 h -8.5 -8.5 v -4 -4 h 8.5 8.5 v -8.5 -8.5 h 4 4 v -4.5 -4.5 h -4 -4 v -8.5 -8.5 h -4 -4 v -4 -4 h -4.5 -4.5 v -4.5 -4.5 h 4.5 4.5 v 4.5 4.5 h 4 4 v 4 4 h 4 4 v 8.5 8.5 h 8.5 8.5 v -4 -4 h -4 -4 v -4.5 -4.5 h 4 4 v -4 -4 h 4.5 4.5 v 4 4 h 4 4 v 4.5 4.5 h 4.5 4.5 v 4 4 h -4.5 -4.5 v -4 -4 h -4 -4 v 4 4 h -4.5 -4.5 v 4.5 4.5 h -8.5 -8.5 v 8.5 8.5 h -4 -4 v 4 4 h 4 4 v 4 4 h -4 -4 v 4.5 4.5 h 4 4 v 4 4 h -4 -4 v 4.5 4.5 h 4 4 v 4 4 h -4 -4 v -4 -4 h -4 -4 v 4 4 h -8.5 -8.5 v 4.5 4.5 h 4 4 v 4 4 h 4.5 4.5 v -4 -4 h 4 4 v 4 4 h 4 4 v 4.5 4.5 h -4 -4 v -4.5 -4.5 h -4 -4 v 4.5 4.5 h -4.5 -4.5 v 4 4 h -4 -4 v 4.5 4.5 h 4 4 v 8.5 8.5 h -4 -4 v 4 4 h -4.5 -4.5 v 4.5 4.5 h 4.5 4.5 v 8.5 8.5 h -4.5 -4.5 v 4 4 h 4.5 4.5 v 4 4 h -4.5 -4.5 v 4.5 4.5 h 4.5 4.5 v 4 4 h 4 4 v 4.5 4.5 h -4 -4 z M 466,699 v -4 h -4 -4 v 4 4 h 4 4 z m 34,-85 v -4 h -4 -4 v 4 4 h 4 4 z m 34,-67.5 V 542 h -4.5 -4.5 v 4.5 4.5 h 4.5 4.5 z m -34,220 V 762 h 4 4 v 4.5 4.5 h -4 -4 z m 25,0 V 762 h 4.5 4.5 v 4.5 4.5 H 529.5 525 Z M 424,758 v -4 h 4 4 v 4 4 h -4 -4 z m 84,-8.5 V 745 h 4.5 4.5 v 4.5 4.5 h -4.5 -4.5 z m 43,0 V 745 h 4 4 v 4.5 4.5 h -4 -4 z m 254,0 V 745 h 4.5 4.5 v -4 -4 h 4 4 v 4 4 h -4 -4 v 4.5 4.5 H 809.5 805 Z M 483,741 v -4 h 4.5 4.5 v 4 4 h -4.5 -4.5 z m -59,-8 v -4 h 4 4 v 4 4 h -4 -4 z m 101,0 v -4 h 4.5 4.5 v 4 4 h -4.5 -4.5 z m -33,-8.5 V 720 h -4.5 -4.5 v -4 -4 h 4.5 4.5 v 4 4 h 4 4 v -4 -4 h 4 4 v -4.5 -4.5 h 4.5 4.5 v 4.5 4.5 h -4.5 -4.5 v 4 4 h 4.5 4.5 v 4.5 4.5 h -4.5 -4.5 v -4.5 -4.5 h -4 -4 v 4.5 4.5 h -4 -4 z m 42,-8.5 v -4 h 4 4 v 4 4 h -4 -4 z m 17,0 v -4 h 4 4 v 4 4 h -4 -4 z m 263,0 v -4 h 4 4 v 4 4 h -4 -4 z M 432,699 v -4 h 4.5 4.5 v 4 4 h -4.5 -4.5 z m 60,0 v -4 h 4 4 v -4.5 -4.5 h 4 4 v -4 -4 h 4.5 4.5 v 4 4 h 4 4 v 4.5 4.5 h -4 -4 v -4.5 -4.5 h -4.5 -4.5 v 4.5 4.5 h -4 -4 v 4 4 h -4 -4 z m 84,0 v -4 h 4.5 4.5 v 4 4 h -4.5 -4.5 z m -34,-8.5 V 686 h -4 -4 v -4 -4 h 4 4 v 4 4 h 4.5 4.5 v 4.5 4.5 h -4.5 -4.5 z m 289,0 V 686 h -4.5 -4.5 v -4 -4 h 4.5 4.5 v 4 4 h 4 4 v 4.5 4.5 h -4 -4 z m -339,-17 V 669 h 4 4 v 4.5 4.5 h -4 -4 z m 33,-8.5 v -4 h 4.5 4.5 v 4 4 h -4.5 -4.5 z m 26,0 v -4 h 4 4 v 4 4 h -4 -4 z m 17,-8.5 V 652 h 4 4 v 4.5 4.5 h -4 -4 z m 263,0 V 652 h 4 4 v 4.5 4.5 h -4 -4 z M 517,648 v -4 h 4 4 v 4 4 h -4 -4 z m 17,0 v -4 h 4 4 v 4 4 h -4 -4 z m 51,0 v -4 h 4 4 v 4 4 h -4 -4 z m -51,-17 v -4 h 4 4 v 4 4 h -4 -4 z m 17,0 v -4 h 4 4 v 4 4 h -4 -4 z m 17,0 v -4 h 4 4 v 4 4 h -4 -4 z m -51,-8.5 V 618 h 4 4 v 4.5 4.5 h -4 -4 z m 85,0 V 618 h 4 4 v 4.5 4.5 h -4 -4 z m 237,0 V 618 h 4 4 v 4.5 4.5 h -4 -4 z M 534,614 v -4 h 4 4 v -4.5 -4.5 h -4 -4 v -4 -4 h -4.5 -4.5 v -4 -4 h -4 -4 v -4.5 -4.5 h 4 4 v 4.5 4.5 h 4.5 4.5 v 4 4 h 4 4 v 4 4 h 4.5 4.5 v 4.5 4.5 h -4.5 -4.5 v 4 4 h -4 -4 z m -68,-8.5 V 601 h 4.5 4.5 v 4.5 4.5 h -4.5 -4.5 z m 51,0 V 601 h 4 4 v 4.5 4.5 h -4 -4 z m 59,-8.5 v -4 h 4.5 4.5 v 4 4 h -4.5 -4.5 z m 271,0 v -4 h 4.5 4.5 v 4 4 h -4.5 -4.5 z m -296,-8 v -4 h 4 4 v -4.5 -4.5 h 4.5 4.5 v 4.5 4.5 h -4.5 -4.5 v 4 4 h -4 -4 z m 42,0 v -4 h 4.5 4.5 v 4 4 h -4.5 -4.5 z m 263,-8.5 V 576 h 4 4 v 4.5 4.5 h -4 -4 z M 483,572 v -4 h 4.5 4.5 v 4 4 h -4.5 -4.5 z m 59,0 v -4 h 4.5 4.5 v 4 4 h -4.5 -4.5 z m 43,-8.5 V 559 h -4.5 -4.5 v -4 -4 h 4.5 4.5 v 4 4 h 4 4 v 4.5 4.5 h -4 -4 z m 271,0 V 559 h 4 4 v 4.5 4.5 h -4 -4 z M 483,555 v -4 h -4 -4 v -4.5 -4.5 h 4 4 v 4.5 4.5 h 4.5 4.5 v 4 4 h -4.5 -4.5 z m 136,0 v -4 h 4 4 v 4 4 h -4 -4 z m -68,-17 v -4 h 4 4 v 4 4 h -4 -4 z m 34,0 v -4 h 4 4 v 4 4 h -4 -4 z m 288,0 v -4 h -4.5 -4.5 v -4.5 -4.5 h 4.5 4.5 v 4.5 4.5 h 4 4 v 4 4 h -4 -4 z M 508,525.5 V 517 h 4.5 4.5 v -4.5 -4.5 h 4 4 v 4.5 4.5 h 4.5 4.5 v 4 4 h -4.5 -4.5 v -4 -4 h -4 -4 v 8.5 8.5 h -4.5 -4.5 z m 60,4 V 525 h 4 4 v 4.5 4.5 h -4 -4 z M 542,521 v -4 h 4.5 4.5 v 4 4 h -4.5 -4.5 z m -50,-8.5 V 508 h 4 4 v -4 -4 h 4 4 v -4.5 -4.5 h -4 -4 v -4 -4 h 4 4 v 4 4 h 8.5 8.5 v 4.5 4.5 h -8.5 -8.5 v 4 4 h -4 -4 v 4.5 4.5 h -4 -4 z m 42,-8.5 v -4 h 4 4 v 4 4 h -4 -4 z M 458,394 v -4 h -8.5 -8.5 v -4.5 -4.5 h -8.5 -8.5 v -4 -4 H 419.5 415 V 368.5 364 H 402.5 390 v -4 -4 H 377 364 V 351.5 347 H 351.5 339 v -4 -4 h 12.5 12.5 v 4 4 h 17 17 v -4 -4 h -4 -4 v -8.5 -8.5 h 4 4 v -4.5 -4.5 h -4 -4 v -4 -4 h -4.5 -4.5 v -4.5 -4.5 h 4.5 4.5 v 4.5 4.5 h 4 4 v -8.5 -8.5 h -4 -4 v -4 -4 h 4 4 v 4 4 h 4.5 4.5 v -8.5 -8.5 h 4 4 v -4 -4 h -4 -4 v -4.5 -4.5 h -4.5 -4.5 v -4 -4 h 4.5 4.5 v 4 4 h 4 4 v -8.5 -8.5 h 4.5 4.5 v -4 -4 h -4.5 -4.5 v -4.5 -4.5 h -4 -4 v -4 -4 h 4 4 v 4 4 h 4.5 4.5 v -8.5 -8.5 h 4 4 v -4 -4 h -4 -4 v -4.5 -4.5 h -4.5 -4.5 v -4 -4 h 4.5 4.5 v 4 4 h 4 4 v -8.5 -8.5 h -4 -4 v -4 -4 h 4 4 v 4 4 h 4.5 4.5 v -8.5 -8.5 h 4 4 v -4 -4 h -4 -4 v -4 -4 h -4.5 -4.5 v -4.5 -4.5 h 4.5 4.5 v 4.5 4.5 h 4 4 v -8.5 -8.5 h 4.5 4.5 v -4.5 -4.5 h -4.5 -4.5 v -4 -4 h -4 -4 V 97.5 93 h 4 4 v 4.5 4.5 h 4.5 4.5 v 4 4 h 4 4 V 101.5 93 h -4 -4 V 89 85 H 453.5 449 V 80.5 76 h 4.5 4.5 V 72 68 H 453.5 449 V 63.5 59 h 4.5 4.5 v 4.5 4.5 h 4 4 V 59.5 51 h 4.5 4.5 V 46.5 42 h -4.5 -4.5 v -4 -4 h 4.5 4.5 V 29.5 25 h -4.5 -4.5 v -4 -4 h -4 -4 V 12.5 8 h 8.5 8.5 v 8.5 8.5 h 4 4 v -4 -4 h 4.5 4.5 v 8.5 8.5 h 4 4 V 29.5 25 h 4 4 v 4.5 4.5 h 8.5 8.5 v 4 4 h 8.5 8.5 v 4.5 4.5 h 8.5 8.5 v 4 4 h 4.5 4.5 v 17 17 h -4.5 -4.5 v 17 17 h -4 -4 v 12.5 12.5 h -4.5 -4.5 v 13 13 h -4 -4 v 17 17 h -4.5 -4.5 v 12.5 12.5 h -4 -4 v 17 17 h -4.5 -4.5 v 12.5 12.5 h -4 -4 v 17 17 h -4 -4 v 13 13 h -4.5 -4.5 v 12.5 12.5 h -4 -4 v 8.5 8.5 h -8.5 -8.5 z m 8,-8.5 V 381 h -4 -4 v 4.5 4.5 h 4 4 z M 449,377 v -4 h -4 -4 v -4.5 -4.5 h -4.5 -4.5 v -4 -4 h -8.5 -8.5 v 4 4 h 8.5 8.5 v 4.5 4.5 h 4.5 4.5 v 4 4 h 4 4 z M 407,351.5 V 347 h 4 4 v -4 -4 h -4 -4 v -8.5 -8.5 h -4.5 -4.5 v 8.5 8.5 h 4.5 4.5 v 4 4 h -4.5 -4.5 v 4.5 4.5 h 4.5 4.5 z M 424,326 v -4 h -4.5 -4.5 v 4 4 h 4.5 4.5 z m -17,-17 v -4 h 4 4 v 4 4 h 4.5 4.5 v -4 -4 h -4.5 -4.5 v -8.5 -8.5 h 4.5 4.5 v 4 4 h 4 4 v -4 -4 h -4 -4 v -8.5 -8.5 h -4.5 -4.5 v 8.5 8.5 h -4 -4 v 8.5 8.5 h -4.5 -4.5 v 4 4 h 4.5 4.5 z m 34,-33.5 V 271 h -4.5 -4.5 v 4.5 4.5 h 4.5 4.5 z m -17,-17 V 254 h 4 4 v 4.5 4.5 h 4.5 4.5 v -4.5 -4.5 h -4.5 -4.5 v -8.5 -8.5 h -4 -4 v 8.5 8.5 h -4.5 -4.5 v 4.5 4.5 h 4.5 4.5 z m 25,-17 V 237 h -4 -4 v 4.5 4.5 h 4 4 z m -17,-17 V 220 h 4.5 4.5 v 4.5 4.5 h 4 4 v -4.5 -4.5 h -4 -4 v -8.5 -8.5 h -4.5 -4.5 v 8.5 8.5 h -4 -4 v 4.5 4.5 h 4 4 z m 26,-17 V 203 h -4.5 -4.5 v 4.5 4.5 h 4.5 4.5 z m -17,-17 V 186 h 4 4 v 4.5 4.5 h 4.5 4.5 v -4.5 -4.5 h -4.5 -4.5 v -8.5 -8.5 h 4.5 4.5 v 4.5 4.5 h 4 4 v -4.5 -4.5 h -4 -4 v -8.5 -8.5 h -4.5 -4.5 v 8.5 8.5 h -4 -4 v 8.5 8.5 h -4.5 -4.5 v 4.5 4.5 h 4.5 4.5 z m 34,-34 V 152 h -4.5 -4.5 v 4.5 4.5 h 4.5 4.5 z M 466,140 v -4 h 4.5 4.5 v -4.5 -4.5 h -4.5 -4.5 v -4 -4 h 4.5 4.5 v -4.5 -4.5 h 4 4 v -4 -4 h -4 -4 v 4 4 h -4.5 -4.5 v 4.5 4.5 h -4 -4 v 4 4 h 4 4 v 4.5 4.5 h -8.5 -8.5 v 4 4 h 8.5 8.5 z m 9,-51 v -4 h 4 4 v 4 4 h 4.5 4.5 V 89 85 H 487.5 483 V 80.5 76 h -4 -4 v -4 -4 h 4 4 V 63.5 59 h 4.5 4.5 v -4 -4 h -8.5 -8.5 v 8.5 8.5 h -4.5 -4.5 v 4 4 h -4 -4 v 4.5 4.5 h 4 4 v 4 4 h 4.5 4.5 z m -9,-8.5 V 76 h 4.5 4.5 V 80.5 85 H 470.5 466 Z M 500,72 v -4 h -4 -4 v 4 4 h 4 4 z m 8,-25.5 V 42 h -4 -4 v 4.5 4.5 h 4 4 z M 492,38 v -4 h -8.5 -8.5 v 4 4 h 8.5 8.5 z M 119,377 v -4 h -4.5 -4.5 v -8.5 -8.5 h 4.5 4.5 v 8.5 8.5 h 8.5 8.5 v -4.5 -4.5 h 12.5 12.5 v -4 -4 h 12.5 12.5 v -4.5 -4.5 h 17 17 v 4.5 4.5 H 207.5 195 v 4 4 h -17 -17 v 4.5 4.5 h -8.5 -8.5 v 4 4 H 131.5 119 Z m 110,-34 v -4 h 17 17 v 4 4 h -17 -17 z m 42,0 v -4 h 4.5 4.5 v 4 4 h -4.5 -4.5 z m 51,0 v -4 h 4.5 4.5 v 4 4 H 326.5 322 Z M 119,334.5 V 330 h 4 4 v 4.5 4.5 h -4 -4 z m 254,0 V 330 h 4 4 v 4.5 4.5 h -4 -4 z m 0,-17 V 313 h 4 4 v 4.5 4.5 h -4 -4 z m -246,-13 V 296 h 4.5 4.5 v 8.5 8.5 h -4.5 -4.5 z m 9,-25 V 271 h 4 4 v 8.5 8.5 h -4 -4 z M 390,267 v -4 h 4 4 v 4 4 h -4 -4 z M 144,245.5 V 237 h 4.5 4.5 v 8.5 8.5 H 148.5 144 Z M 398,233 v -4 h 4.5 4.5 v 4 4 H 402.5 398 Z M 153,220.5 V 212 h 4 4 v 8.5 8.5 h -4 -4 z M 407,199 v -4 h 4 4 v 4 4 h -4 -4 z M 161,186.5 V 178 h 4 4 v 8.5 8.5 h -4 -4 z m 8,-30 V 152 h 4.5 4.5 v 4.5 4.5 H 173.5 169 Z M 424,148 v -4 h 4 4 v 4 4 h -4 -4 z M 178,127.5 V 119 h 4 4 v 8.5 8.5 h -4 -4 z m 254,-13 V 110 h 4.5 4.5 v 4.5 4.5 h -4.5 -4.5 z m -246,-13 V 93 h 4.5 4.5 v 8.5 8.5 h -4.5 -4.5 z m 9,-34 V 59 h 4 4 v 8.5 8.5 h -4 -4 z m 8,-21 V 42 h 4.5 4.5 v 4.5 4.5 h -4.5 -4.5 z m 246,0 V 42 h 4.5 4.5 V 46.5 51 H 453.5 449 Z M 220,38 v -4 h 4.5 4.5 v 4 4 h -4.5 -4.5 z m 26,-8.5 V 25 h 4 4 v 4.5 4.5 h -4 -4 z M 271,21 v -4 h 4.5 4.5 v 4 4 h -4.5 -4.5 z m 26,-8.5 V 8 h 4 4 v 4.5 4.5 h -4 -4 z M 347,4 V 0 h 13 13 v 4 4 h -13 -13 z m 68,0 V 0 h 8.5 8.5 v 4 4 h -8.5 -8.5 z"
       id="path22" />
    <path
       style="fill:#4c5c00"
       d="m 551,877 v -4 h 21 21 v 4 4 h -21 -21 z m 76,0 v -4 h 21 21 v 4 4 H 648 627 Z M 517,868.5 V 864 h 4 4 v 4.5 4.5 h -4 -4 z m 169,0 V 864 h 13 13 v 4.5 4.5 H 699 686 Z M 492,860 v -4 h 4 4 v 4 4 h -4 -4 z m 237,0 v -4 h 4 4 v 4 4 h -4 -4 z M 466,851.5 V 847 h 8.5 8.5 v 4.5 4.5 h -8.5 -8.5 z m 280,0 V 847 h 8.5 8.5 v -4 -4 h 12.5 12.5 v -13 -13 h 8.5 8.5 v 4.5 4.5 h -4 -4 v 8.5 8.5 h -4.5 -4.5 v 4 4 H 775.5 763 v 4.5 4.5 H 754.5 746 Z M 449,843 v -4 h 4.5 4.5 v 4 4 h -4.5 -4.5 z m -17,-8.5 V 830 h 4.5 4.5 v 4.5 4.5 H 436.5 432 Z M 415,826 v -4 h -4 -4 v -4.5 -4.5 h -4.5 -4.5 v -4 -4 h 4.5 4.5 v 4 4 h 4 4 v 4.5 4.5 h 4.5 4.5 v 4 4 h -4.5 -4.5 z m 34,0 v -4 h 4.5 4.5 v 4 4 h -4.5 -4.5 z m 348,-34 v -13 h 4 4 V 766.5 754 h 4.5 4.5 v -4.5 -4.5 h 4 4 v 8.5 8.5 h -4 -4 v 13 13 h -4.5 -4.5 v 8.5 8.5 h -4 -4 z m -331,0 v -4 h 4.5 4.5 v 4 4 h -4.5 -4.5 z m -34,-8.5 V 779 h -4 -4 v -4 -4 h 4 4 v -4.5 -4.5 h 4.5 4.5 v 4.5 4.5 h -4.5 -4.5 v 4 4 h 4.5 4.5 v 4.5 4.5 H 436.5 432 Z M 407,775 v -4 h 4 4 v 4 4 h -4 -4 z m 8,-25.5 V 745 h 4.5 4.5 v 4.5 4.5 h -4.5 -4.5 z m 17,0 V 745 h 4.5 4.5 v 4.5 4.5 h -4.5 -4.5 z m 17,0 V 745 h 4.5 4.5 v 4.5 4.5 h -4.5 -4.5 z m 26,0 V 745 h 4 4 v 4.5 4.5 h -4 -4 z m 339,-21 V 720 h 4 4 V 707.5 695 h 8.5 8.5 v 4 4 h -4 -4 v 13 13 h -4.5 -4.5 v 4 4 h -4 -4 z m -390,-8 V 712 h 4 4 v 8.5 8.5 h -4 -4 z m 17,4 V 720 h 4 4 v 4.5 4.5 h -4 -4 z m 8,-17 V 703 h 4.5 4.5 v 4.5 4.5 h -4.5 -4.5 z m 59,-8.5 v -4 h 4.5 4.5 v 4 4 h -4.5 -4.5 z m -76,-8.5 V 686 h 4.5 4.5 v 4.5 4.5 h -4.5 -4.5 z m 17,0 V 686 h 4.5 4.5 v -4 -4 h 4 4 v 4 4 h -4 -4 v 4.5 4.5 h -4.5 -4.5 z m 382,-17 V 661 h 4 4 v -13 -13 h 4 4 v -17 -17 h 4.5 4.5 v -4 -4 h 4 4 v 8.5 8.5 h -4 -4 v 12.5 12.5 h -4.5 -4.5 v 17 17 h -4 -4 v 8.5 8.5 h -4 -4 z m -390,-13 V 652 h 4 4 v 8.5 8.5 h -4 -4 z m 17,4.5 v -4 h 4 4 v -4.5 -4.5 h 4.5 4.5 v 4.5 4.5 h -4.5 -4.5 v 4 4 h -4 -4 z m 42,-17 v -4 h 4 4 v 4 4 h -4 -4 z m -51,-17 v -4 h 4.5 4.5 v 4 4 h -4.5 -4.5 z m 17,0 v -4 h 4.5 4.5 v 4 4 h -4.5 -4.5 z m 76,-8.5 V 618 h 4.5 4.5 v 4.5 4.5 h -4.5 -4.5 z m -67,-13 V 601 h 4 4 v -4 -4 h 4.5 4.5 v 4 4 h -4.5 -4.5 v 8.5 8.5 h -4 -4 z m -17,-8 V 593 h 4 4 v 8.5 8.5 h -4 -4 z m 25,-21 V 576 h 4.5 4.5 v 4.5 4.5 h -4.5 -4.5 z m 381,0 V 576 h -4 -4 v -4 -4 h 4 4 v -17 -17 h 4.5 4.5 v -13 -13 h -4.5 -4.5 v -4 -4 h 4.5 4.5 v 4 4 h 8.5 8.5 v 8.5 8.5 h -4.5 -4.5 v 4.5 4.5 h -4 -4 v 4 4 h 4 4 v 4.5 4.5 h -4 -4 v 17 17 H 868.5 864 Z M 466,572 v -4 h 4.5 4.5 v 4 4 h -4.5 -4.5 z m 17,-8.5 V 559 h 4.5 4.5 v 4.5 4.5 h -4.5 -4.5 z m 51,0 V 559 h 4 4 v 4.5 4.5 h -4 -4 z m -42,-17 V 542 h 4 4 v -4 -4 h 4 4 v 4 4 h -4 -4 v 4.5 4.5 h -4 -4 z M 475,538 v -4 h 4 4 v 4 4 h -4 -4 z m 161,0 v -4 h 4 4 v 4 4 h -4 -4 z m 101,0 v -4 h 13 13 v 4 4 H 750 737 Z M 602,529.5 V 525 h 4 4 v 4.5 4.5 h -4 -4 z m 186,0 V 525 h 4.5 4.5 v 4.5 4.5 h -4.5 -4.5 z m -288,-13 V 508 h 4 4 v 8.5 8.5 h -4 -4 z m 76,4.5 v -4 h 4.5 4.5 v 4 4 h -4.5 -4.5 z m 238,0 v -4 h 4 4 v 4 4 h -4 -4 z M 483,512.5 V 508 h 4.5 4.5 v 4.5 4.5 h -4.5 -4.5 z m 76,0 V 508 h 4.5 4.5 v 4.5 4.5 h -4.5 -4.5 z m 280,0 V 508 h 4 4 v 4.5 4.5 h -4 -4 z M 542,504 v -4 h 4.5 4.5 v 4 4 h -4.5 -4.5 z m 119,-8.5 V 491 h -17 -17 v -4 -4 H 614.5 602 v -4.5 -4.5 h -13 -13 v -4 -4 h -8.5 -8.5 v -4.5 -4.5 h -8.5 -8.5 v -4 -4 h -8.5 -8.5 v -4.5 -4.5 h -4 -4 v -4 -4 h -4.5 -4.5 v -4 -4 h 4.5 4.5 v -4.5 -4.5 h 4 4 v -8.5 -8.5 h 4.5 4.5 v -8.5 -8.5 h -4.5 -4.5 v -8.5 -8.5 h 4.5 4.5 v -4 -4 h 8.5 8.5 v -4.5 -4.5 h -8.5 -8.5 v -8.5 -8.5 h 4 4 V 317.5 305 h 4.5 4.5 v 4 4 h 4 4 v -8.5 -8.5 h -4 -4 V 283.5 271 h 8.5 8.5 v -4 -4 h -4.5 -4.5 v -8.5 -8.5 h 8.5 8.5 v -4.5 -4.5 h -4 -4 V 224.5 212 h 8.5 8.5 v -4.5 -4.5 h -4.5 -4.5 v -8.5 -8.5 h 8.5 8.5 v -4 -4 h -4 -4 v -8.5 -8.5 h 4 4 v -4.5 -4.5 h 4.5 4.5 v -4 -4 h -4.5 -4.5 v -8.5 -8.5 h 8.5 8.5 v -4 -4 h -4 -4 v -8.5 -8.5 h 4 4 v 4 4 h 4.5 4.5 v -4 -4 h 8.5 8.5 v 4 4 h 4 4 v 4.5 4.5 h 8.5 8.5 v 8.5 8.5 h 4 4 v -4.5 -4.5 h 4.5 4.5 v 4.5 4.5 h 8.5 8.5 v 8 8 h 4 4 v 4.5 4.5 h -4 -4 v 4 4 h 8.5 8.5 v 4.5 4.5 h -8.5 -8.5 v -4.5 -4.5 h -4.5 -4.5 v 13 13 h 4.5 4.5 v -4.5 -4.5 h 12.5 12.5 v -4 -4 h 4.5 4.5 v -4.5 -4.5 h -4.5 -4.5 v -4 -4 h -4 -4 v -8.5 -8.5 h 4 4 v 8.5 8.5 h 4.5 4.5 v 4 4 h 8.5 8.5 v 4.5 4.5 h -8.5 -8.5 v 4 4 h 4 4 v 4.5 4.5 h -4 -4 v 4 4 h 4 4 v 4.5 4.5 h -4 -4 v 4 4 h -4.5 -4.5 v 8.5 8.5 h -4 -4 v 4.5 4.5 h 4 4 v 8.5 8.5 h -4 -4 v 4 4 h 4 4 v 4.5 4.5 h -4 -4 v -4.5 -4.5 h -4.5 -4.5 v 4.5 4.5 h -8.5 -8.5 v -4.5 -4.5 h -4 -4 v 8.5 8.5 h 4 4 v 4 4 h 4.5 4.5 v -4 -4 h 8.5 8.5 v 4 4 h -8.5 -8.5 v 4.5 4.5 h 4 4 v 4 4 h -4 -4 v 4.5 4.5 h 4 4 v 4 4 h -4 -4 v 4.5 4.5 h -4.5 -4.5 v 4 4 h 4.5 4.5 v 4.5 4.5 h 4 4 v 4 4 h -4 -4 v -4 -4 h -4.5 -4.5 v 4 4 h -8.5 -8.5 v 4.5 4.5 h 8.5 8.5 v 4 4 h -4 -4 v 4.5 4.5 h -4.5 -4.5 v 4 4 h 4.5 4.5 v 4.5 4.5 h -4.5 -4.5 v 4 4 h -4 -4 v 8.5 8.5 h 4 4 v -4 -4 h 4.5 4.5 v -4.5 -4.5 h 4 4 v -4 -4 h 4.5 4.5 v 4 4 h -4.5 -4.5 v 4.5 4.5 h -4 -4 v 4 4 h -4.5 -4.5 v 4 4 h -4 -4 v 4.5 4.5 h -8.5 -8.5 v 4 4 h 8.5 8.5 v 4.5 4.5 h -4 -4 v 4 4 h -4.5 -4.5 v 4.5 4.5 h 17 17 v 4 4 h 4 4 v 4.5 4.5 h -4 -4 v -4.5 -4.5 h -4.5 -4.5 v 4.5 4.5 h -4 -4 z m -25,-17 V 474 h 4 4 v -8.5 -8.5 h -4 -4 v -4 -4 h 4 4 v -4.5 -4.5 h 8.5 8.5 v -4 -4 h -4 -4 v -8.5 -8.5 h 4 4 v -4 -4 h 4 4 v -4.5 -4.5 h -4 -4 v -4 -4 h 4 4 v -8.5 -8.5 h -4 -4 v -4.5 -4.5 h 4 4 v -4 -4 h 8.5 8.5 V 351.5 347 H 673.5 661 v -4 -4 h 12.5 12.5 v -4.5 -4.5 h 4.5 4.5 v -4 -4 h -4.5 -4.5 v -4.5 -4.5 h 4.5 4.5 v -4 -4 h -4.5 -4.5 v -4.5 -4.5 h -4 -4 v -4 -4 h -4.5 -4.5 v -8.5 -8.5 h 4.5 4.5 v -4 -4 h -4.5 -4.5 v -4.5 -4.5 h 4.5 4.5 v -4 -4 h 4 4 v 12.5 12.5 h 8.5 8.5 v -4 -4 h 4.5 4.5 v -8.5 -8.5 h -4.5 -4.5 v -4.5 -4.5 h 4.5 4.5 v -8.5 -8.5 h 4 4 v -4 -4 h 4.5 4.5 v -4.5 -4.5 h -4.5 -4.5 v -4 -4 h 4.5 4.5 v -4.5 -4.5 h -4.5 -4.5 v 4.5 4.5 H 707.5 695 v 4 4 h 4 4 v 17 17 h -4 -4 V 224.5 212 h -13 -13 v -4.5 -4.5 h -4 -4 v -4 -4 h 8.5 8.5 v 4 4 h 4 4 v -4 -4 h -4 -4 v -4.5 -4.5 h -8.5 -8.5 v -4 -4 h -4 -4 v 4 4 h 4 4 v 4.5 4.5 h -4 -4 v 4 4 h -4.5 -4.5 v -4 -4 h -4 -4 v 4 4 h 4 4 v 4.5 4.5 h 4.5 4.5 v -4.5 -4.5 h 4 4 v 8.5 8.5 h -4 -4 v 4.5 4.5 h -4.5 -4.5 v 12.5 12.5 h -4 -4 v -4 -4 h -4.5 -4.5 v 4 4 h 4.5 4.5 v 4.5 4.5 h -4.5 -4.5 v 4 4 h 4.5 4.5 v 4.5 4.5 h 4 4 v 8 8 h -4 -4 v -4 -4 h -8.5 -8.5 v -4 -4 h -4.5 -4.5 v 4 4 h 4.5 4.5 v 4 4 h 8.5 8.5 v 4.5 4.5 h 8.5 8.5 v 8.5 8.5 h 8 8 v 4 4 h -8 -8 v 13 13 h -4.5 -4.5 v -4.5 -4.5 h -4 -4 v -4 -4 h 4 4 v -4.5 -4.5 h -4 -4 v 4.5 4.5 h -4.5 -4.5 v 4 4 h -4 -4 v -4 -4 h -4.5 -4.5 v -8.5 -8.5 h -4 -4 v 8.5 8.5 h 4 4 v 4 4 h 4.5 4.5 v 8.5 8.5 h -4.5 -4.5 v 4.5 4.5 h 4.5 4.5 v 4 4 h -8.5 -8.5 v 4.5 4.5 h -4.5 -4.5 v 8.5 8.5 h 4.5 4.5 v 8.5 8.5 h -4.5 -4.5 v -4.5 -4.5 h -4 -4 v 4.5 4.5 h 4 4 v 4 4 h -4 -4 v 4 4 h 4 4 v 8.5 8.5 h -4 -4 v -4 -4 h -4.5 -4.5 v 4 4 h 4.5 4.5 v 4.5 4.5 h 4 4 v -4.5 -4.5 h 4.5 4.5 v 8.5 8.5 h 4 4 v -8.5 -8.5 h 4.5 4.5 v 8.5 8.5 h 4 4 v 4.5 4.5 h 4.5 4.5 z m -9,-13 V 457 h -4 -4 v -4 -4 h -4.5 -4.5 v 4 4 h -4 -4 v -4 -4 h 4 4 v -4.5 -4.5 h -8.5 -8.5 v -4 -4 h 4.5 4.5 v -4 -4 h 8.5 8.5 v 4 4 h 4 4 v -8.5 -8.5 h -8.5 -8.5 v -4 -4 h -4 -4 v -8.5 -8.5 h 8.5 8.5 v -4.5 -4.5 h 4 4 v -4 -4 h -4 -4 v -4.5 -4.5 h 4 4 v -8.5 -8.5 h 4.5 4.5 v 4.5 4.5 h 4 4 v 4 4 h 4.5 4.5 v -4 -4 h 4 4 v 4 4 h -4 -4 v 4.5 4.5 h 4 4 v 4 4 h -8.5 -8.5 v 4.5 4.5 h 4.5 4.5 v 4 4 h 4 4 v 4.5 4.5 h -4 -4 v 4 4 H 648.5 644 V 402.5 390 h -4 -4 v 21 21 h 4 4 v 4 4 h -4 -4 v -4 -4 h -4.5 -4.5 v 12.5 12.5 h 4.5 4.5 v 8.5 8.5 H 631.5 627 Z M 619,436 v -4 h -4.5 -4.5 v 4 4 h 4.5 4.5 z m 8,-33.5 V 398 h -8.5 -8.5 v 4.5 4.5 h 8.5 8.5 z m 9,-17 V 381 h 4 4 v -8.5 -8.5 h -8.5 -8.5 v 4.5 4.5 h 4.5 4.5 v 4 4 h -4.5 -4.5 v 4.5 4.5 h 4.5 4.5 z M 678,326 v -4 h -4.5 -4.5 v -4.5 -4.5 h -4 -4 v -4 -4 h -4 -4 v -8.5 -8.5 h 8 8 v 4 4 h 4.5 4.5 v 4.5 4.5 h 4 4 v 4 4 h -4 -4 v 4.5 4.5 h 4 4 v 4 4 h -4 -4 z m 0,-17 v -4 h -4.5 -4.5 v -4.5 -4.5 h -4 -4 v 4.5 4.5 h 4 4 v 4 4 h 4.5 4.5 z M 653,275.5 V 271 h -8.5 -8.5 v -4 -4 h 4 4 v -4.5 -4.5 h 8.5 8.5 v -4 -4 h -4 -4 v -8.5 -8.5 h 4 4 v -4.5 -4.5 h 12.5 12.5 v 8.5 8.5 h 4.5 4.5 v 4.5 4.5 h 4 4 v 8.5 8.5 h -4 -4 v -8.5 -8.5 h -4.5 -4.5 v -4.5 -4.5 h -4 -4 v 4.5 4.5 h -4.5 -4.5 v 4 4 h -4 -4 v 4.5 4.5 h 4 4 v 4 4 h -4 -4 v 4.5 4.5 h -4 -4 z m 8,-8.5 v -4 h -4 -4 v 4 4 h 4 4 z m 8,-25.5 V 237 h 4.5 4.5 v -4 -4 h -4.5 -4.5 v 4 4 h -4 -4 v 4.5 4.5 h 4 4 z m 43,-34 V 203 h 4 4 v 4.5 4.5 h -4 -4 z M 568,453 v -4 h -4.5 -4.5 v 4 4 h 4.5 4.5 z m 8,-17 v -4 h -4 -4 v 4 4 h 4 4 z m -51,-8 v -4 h -4 -4 v 4 4 h 4 4 z m 17,-25.5 V 398 h -4 -4 v 4.5 4.5 h 4 4 z m 43,-8.5 v -4 h -4.5 -4.5 v 4 4 h 4.5 4.5 z m -17,-17 v -4 h -4.5 -4.5 v 4 4 h 4.5 4.5 z m -26,-8.5 V 364 h -4 -4 v 4.5 4.5 h 4 4 z m 60,-4 V 356 h -4.5 -4.5 v 8.5 8.5 h 4.5 4.5 z m -51,-30 V 330 h -4.5 -4.5 v 4.5 4.5 h 4.5 4.5 z m 76,-17 V 305 h -4 -4 v 12.5 12.5 h 4 4 z m 17,0 V 313 h -4 -4 v 4.5 4.5 h 4 4 z M 585,309 v -4 h -4.5 -4.5 v 4 4 h 4.5 4.5 z m -17,-25 v -4 h -4.5 -4.5 v 4 4 h 4.5 4.5 z m 42,-42.5 V 237 h -4 -4 v 4.5 4.5 h 4 4 z m -25,-17 V 220 h -4.5 -4.5 v 4.5 4.5 h 4.5 4.5 z m 51,0 V 220 h -4.5 -4.5 v 4.5 4.5 h 4.5 4.5 z m 42,-51 V 169 h 4 4 v -4 -4 h 4.5 4.5 v -4.5 -4.5 h -4.5 -4.5 v -4 -4 h -8.5 -8.5 v 4 4 h -4 -4 v 8.5 8.5 h 4 4 v 4.5 4.5 h 4.5 4.5 z m -9,-13 V 152 h 4.5 4.5 v 8.5 8.5 h -4.5 -4.5 z m -67,4.5 v -4 h -4.5 -4.5 v 4 4 h 4.5 4.5 z m 17,0 v -4 h -4.5 -4.5 v 4 4 h 4.5 4.5 z m 34,0 v -4 h -4.5 -4.5 v 4 4 h 4.5 4.5 z m 42,330.5 V 491 h 4 4 v 4.5 4.5 h -4 -4 z m 17,0 V 491 h 4 4 v 4.5 4.5 h -4 -4 z m 17,0 V 491 h 4 4 v 4.5 4.5 h -4 -4 z m 17,0 V 491 h 4 4 v 4.5 4.5 h -4 -4 z m 17,-4 V 483 h 21 21 v -4.5 -4.5 h 13 13 v -4 -4 h 8 8 v -4.5 -4.5 h 4.5 4.5 v -4 -4 h 8.5 8.5 v -4.5 -4.5 h -4.5 -4.5 v -4 -4 h 4.5 4.5 v -4 -4 h -4.5 -4.5 v -4.5 -4.5 h 4.5 4.5 v 4.5 4.5 h 4 4 v -4.5 -4.5 h 8.5 8.5 v -8.5 -8.5 h -4 -4 v 4.5 4.5 h -8.5 -8.5 v -4.5 -4.5 h 8.5 8.5 v -8.5 -8.5 h 8.5 8.5 V 368.5 356 h -4.5 -4.5 v 4 4 h -4 -4 v 4.5 4.5 h -4.5 -4.5 v -4.5 -4.5 h 4.5 4.5 v -4 -4 h -4.5 -4.5 v -4.5 -4.5 h 4.5 4.5 v 4.5 4.5 h 4 4 v -8.5 -8.5 h -4 -4 v -4.5 -4.5 h 4 4 v 4.5 4.5 h 4.5 4.5 v 8.5 8.5 h 4 4 v -13 -13 h -4 -4 v -4 -4 h -4.5 -4.5 v -4.5 -4.5 h 8.5 8.5 v -4 -4 h 4.5 4.5 v -4.5 -4.5 h -4.5 -4.5 v -4 -4 h -4 -4 v -4 -4 h 4 4 v -4.5 -4.5 h -4 -4 v -4 -4 h 4 4 v 4 4 h 4.5 4.5 v -8.5 -8.5 h -4.5 -4.5 v -4 -4 h 4.5 4.5 v 4 4 h 4 4 v -8.5 -8.5 h 4.5 4.5 v -4 -4 h -4.5 -4.5 v -4.5 -4.5 h -4 -4 v -4 -4 h 4 4 v 4 4 h 4.5 4.5 v -8.5 -8.5 h -4.5 -4.5 v -4 -4 h 4.5 4.5 v -4.5 -4.5 h -4.5 -4.5 v -4 -4 h 4.5 4.5 v 4 4 h 4 4 v -8.5 -8.5 h -4 -4 v -4 -4 h 4 4 v -8.5 -8.5 h 4.5 4.5 v 8.5 8.5 h 4 4 v -8.5 -8.5 h 4.5 4.5 V 131.5 119 h 8.5 8.5 v 4 4 h 4 4 v 8.5 8.5 h -4 -4 v 8.5 8.5 h -4.5 -4.5 v 4 4 h 4.5 4.5 v 4.5 4.5 h -8.5 -8.5 v 4 4 h 4 4 v 4.5 4.5 h -4 -4 v 17 17 h -4.5 -4.5 v 8.5 8.5 h -4 -4 v 4 4 h 4 4 v 4.5 4.5 h -4 -4 v 8.5 8.5 h -4.5 -4.5 v 4 4 h 4.5 4.5 v 4 4 h -4.5 -4.5 v 8.5 8.5 h -4 -4 v 8.5 8.5 h -4.5 -4.5 v 4.5 4.5 h 4.5 4.5 v 4 4 h -4.5 -4.5 v 8.5 8.5 h -4 -4 v 17 17 h -4.5 -4.5 v 13 13 h -4 -4 v 16.5 16.5 h -8.5 -8.5 v 4.5 4.5 h -4.5 -4.5 v -8.5 -8.5 h -4 -4 v 8.5 8.5 h -4.5 -4.5 v 4 4 h -8.5 -8.5 v 4.5 4.5 h -21 -21 v 4 4 h -17 -17 v 4.5 4.5 h -4 -4 z m 127,-47 V 440 h -4.5 -4.5 v -4 -4 h 4.5 4.5 v -4 -4 h -4.5 -4.5 v 4 4 h -4 -4 v 4 4 h 4 4 v 4.5 4.5 h 4.5 4.5 z M 907,394 v -4 h -4.5 -4.5 v 4 4 h 4.5 4.5 z m 17,-72.5 V 313 h 4 4 v -4 -4 h -4 -4 v 4 4 h -4.5 -4.5 v 8.5 8.5 h 4.5 4.5 z m 8,-29.5 v -4 h -4 -4 v -4 -4 h 4 4 v -4.5 -4.5 h 4.5 4.5 v -8.5 -8.5 h -4.5 -4.5 v 8.5 8.5 h -4 -4 v 4.5 4.5 h -4.5 -4.5 v 4 4 h 4.5 4.5 v 4 4 h 4 4 z m 17,0 v -4 h -4 -4 v 4 4 h 4 4 z m 0,-50.5 V 237 h -4 -4 v 4.5 4.5 h 4 4 z m 0,-17 V 220 h -4 -4 v 4.5 4.5 h 4 4 z m 9,-17 V 203 h -4.5 -4.5 v -4 -4 h 8.5 8.5 v -4.5 -4.5 h -8.5 -8.5 v 4.5 4.5 h -4 -4 v 4 4 h 4 4 v 4.5 4.5 h 4.5 4.5 z m 8,-34 V 169 h -4 -4 v -4 -4 h -4.5 -4.5 v 4 4 h 4.5 4.5 v 4.5 4.5 h 4 4 z M 992,140 v -4 h -4.5 -4.5 v 4 4 h 4.5 4.5 z M 492,487 v -4 h 4 4 v -4.5 -4.5 h 4 4 v 4.5 4.5 h -4 -4 v 4 4 h -4 -4 z m 25,0 v -4 h 4 4 v 4 4 h -4 -4 z m 152,-17 v -4 h 4.5 4.5 v 4 4 h -4.5 -4.5 z m 0,-17 v -4 h 4.5 4.5 v -4.5 -4.5 h 4 4 v 4.5 4.5 h -4 -4 v 4 4 h -4.5 -4.5 z m 17,-59 v -4 h 4.5 4.5 v 4 4 h -4.5 -4.5 z m 187,-8.5 V 381 h 4 4 v 4.5 4.5 h -4 -4 z M 695,377 v -4 h 4 4 v 4 4 h -4 -4 z m 8,-34 v -4 h 4.5 4.5 v 4 4 h -4.5 -4.5 z m 9,-17 v -4 h 4 4 v 4 4 h -4 -4 z m 0,-17 v -4 h 4 4 v 4 4 h -4 -4 z m 186,-8.5 V 296 h 4.5 4.5 v 4.5 4.5 H 902.5 898 Z M 720,292 v -4 h 4.5 4.5 v 4 4 h -4.5 -4.5 z m 9,-25 v -4 h 4 4 v 4 4 h -4 -4 z m 0,-17 v -4 h 4 4 v 4 4 h -4 -4 z m 0,-17 v -4 h 4 4 v -4.5 -4.5 h 4.5 4.5 v 4.5 4.5 h -4.5 -4.5 v 4 4 h -4 -4 z m 186,0 v -4 h 4.5 4.5 v 4 4 H 919.5 915 Z M 746,207.5 V 203 h 4 4 v 4.5 4.5 h -4 -4 z m 0,-17 V 186 h 4 4 v 4.5 4.5 h -4 -4 z m 8,-17 V 169 h 4.5 4.5 v 4.5 4.5 h -4.5 -4.5 z m 26,-8.5 v -4 h 4 4 v 4 4 h -4 -4 z m -43,-8.5 V 152 h 8.5 8.5 v 4.5 4.5 h -8.5 -8.5 z m 119,0 V 152 h 12.5 12.5 v 4.5 4.5 H 868.5 856 Z m 42,-8.5 v -4 h 4.5 4.5 v 4 4 h -4.5 -4.5 z m 26,-8 v -4 h 4 4 v 4 4 h -4 -4 z m 25,-8.5 V 127 h 8.5 8.5 v 4.5 4.5 h -8.5 -8.5 z"
       id="path21" />
    <path
       style="fill:#1f1f1f"
       d="M 703,495.5 V 491 h 4.5 4.5 v 4.5 4.5 h -4.5 -4.5 z m 17,0 V 491 h 4.5 4.5 v 4.5 4.5 h -4.5 -4.5 z m 17,0 V 491 h 4.5 4.5 v 4.5 4.5 h -4.5 -4.5 z m 136,-34 V 457 h 4 4 v 4.5 4.5 h -4 -4 z m -339,-59 V 398 h 4 4 v 4.5 4.5 h -4 -4 z M 559,377 v -4 h 4.5 4.5 v 4 4 h -4.5 -4.5 z m 17,-68 v -4 h 4.5 4.5 v 4 4 h -4.5 -4.5 z m 26,-67.5 V 237 h 4 4 v 4.5 4.5 h -4 -4 z m 8,-76.5 v -4 h 4.5 4.5 v 4 4 h -4.5 -4.5 z"
       id="path20" />
  </g>
</svg>
